<svg xmlns="http://www.w3.org/2000/svg" xmlns:xlink="http://www.w3.org/1999/xlink" width="500" zoomAndPan="magnify" viewBox="0 0 375 374.999991" height="500" preserveAspectRatio="xMidYMid meet" version="1.0"><defs><g/><clipPath id="9ebfe21f66"><path d="M 21 21 L 354 21 L 354 354 L 21 354 Z M 21 21 " clip-rule="nonzero"/></clipPath><clipPath id="0e4cfb9b07"><path d="M 0 47.226562 L 328.113281 -0.0507812 L 375.386719 328.0625 L 47.277344 375.339844 Z M 0 47.226562 " clip-rule="nonzero"/></clipPath><clipPath id="473b92078e"><path d="M 0 47.226562 L 328.113281 -0.0507812 L 375.386719 328.0625 L 47.277344 375.339844 Z M 0 47.226562 " clip-rule="nonzero"/></clipPath></defs><g clip-path="url(#9ebfe21f66)"><g clip-path="url(#0e4cfb9b07)"><g clip-path="url(#473b92078e)"><path fill="#ffffff" d="M 351.382812 163.921875 C 351.378906 163.90625 351.378906 163.894531 351.378906 163.882812 C 351.375 163.871094 351.371094 163.859375 351.371094 163.84375 C 351.371094 163.84375 351.371094 163.839844 351.371094 163.835938 C 338.328125 73.496094 254.230469 10.59375 163.882812 23.613281 C 163.882812 23.613281 163.882812 23.613281 163.878906 23.613281 C 163.871094 23.613281 163.863281 23.617188 163.851562 23.617188 C 163.84375 23.621094 163.832031 23.621094 163.820312 23.625 C 73.507812 36.671875 10.617188 120.734375 23.609375 211.0625 C 23.609375 211.0625 23.609375 211.066406 23.609375 211.070312 C 23.609375 211.082031 23.613281 211.09375 23.613281 211.109375 C 23.617188 211.121094 23.617188 211.132812 23.621094 211.144531 C 23.621094 211.148438 23.621094 211.152344 23.621094 211.15625 C 36.664062 301.492188 120.757812 364.390625 211.101562 351.378906 C 211.101562 351.378906 211.101562 351.378906 211.105469 351.378906 C 211.105469 351.378906 211.105469 351.378906 211.109375 351.378906 C 211.109375 351.378906 211.109375 351.378906 211.109375 351.375 C 301.457031 338.359375 364.375 254.273438 351.382812 163.929688 C 351.382812 163.925781 351.382812 163.921875 351.382812 163.921875 Z M 286.222656 255.113281 C 290.902344 240.753906 293.769531 225.730469 294.714844 210.332031 C 304.261719 204.582031 313.503906 198.195312 322.386719 191.175781 C 322.476562 200.917969 321.777344 210.792969 320.179688 220.632812 C 310.464844 233.699219 299.039062 245.269531 286.222656 255.113281 Z M 256.738281 305.433594 C 247.75 309.742188 238.472656 313.199219 229.101562 315.863281 C 233.328125 305.359375 236.847656 294.691406 239.671875 283.910156 C 254.171875 278.65625 267.773438 271.664062 280.230469 263.125 C 274.40625 278.195312 266.527344 292.425781 256.738281 305.433594 Z M 119.878906 286.226562 C 134.238281 290.902344 149.261719 293.773438 164.65625 294.71875 C 170.40625 304.261719 176.796875 313.503906 183.816406 322.390625 C 174.074219 322.480469 164.199219 321.78125 154.355469 320.183594 C 141.292969 310.46875 129.71875 299.039062 119.878906 286.226562 Z M 69.554688 256.738281 C 65.246094 247.75 61.789062 238.476562 59.125 229.105469 C 69.628906 233.332031 80.300781 236.851562 91.078125 239.671875 C 96.332031 254.175781 103.324219 267.777344 111.867188 280.230469 C 96.792969 274.40625 82.5625 266.53125 69.554688 256.738281 Z M 88.761719 119.882812 C 84.085938 134.242188 81.214844 149.265625 80.269531 164.660156 C 70.726562 170.410156 61.484375 176.796875 52.597656 183.820312 C 52.507812 174.078125 53.207031 164.203125 54.804688 154.363281 C 64.519531 141.296875 75.949219 129.726562 88.761719 119.882812 Z M 118.246094 69.5625 C 127.234375 65.25 136.511719 61.792969 145.882812 59.125 C 141.65625 69.632812 138.136719 80.300781 135.316406 91.082031 C 120.8125 96.335938 107.210938 103.328125 94.753906 111.871094 C 100.582031 96.796875 108.457031 82.570312 118.246094 69.5625 Z M 255.109375 88.761719 C 240.746094 84.085938 225.726562 81.21875 210.328125 80.273438 C 204.578125 70.726562 198.191406 61.488281 191.171875 52.601562 C 200.914062 52.511719 210.789062 53.210938 220.628906 54.808594 C 233.691406 64.523438 245.265625 75.949219 255.109375 88.761719 Z M 305.429688 118.246094 C 309.738281 127.234375 313.199219 136.511719 315.863281 145.882812 C 305.355469 141.65625 294.6875 138.136719 283.90625 135.316406 C 278.652344 120.8125 271.660156 107.210938 263.121094 94.757812 C 278.191406 100.582031 292.421875 108.457031 305.429688 118.246094 Z M 338.714844 164.21875 C 338.457031 162.546875 338.191406 160.871094 337.886719 159.199219 C 340.398438 160.5 342.882812 161.871094 345.367188 163.261719 Z M 335.796875 164.640625 L 323.359375 166.433594 C 322.566406 161.242188 321.519531 156.042969 320.234375 150.859375 C 325.050781 152.921875 329.820312 155.167969 334.550781 157.535156 C 335.019531 159.90625 335.4375 162.273438 335.796875 164.640625 Z M 320.445312 166.851562 L 292.917969 170.820312 C 291.230469 159.714844 288.59375 148.96875 285.082031 138.660156 C 295.808594 141.550781 306.421875 145.144531 316.863281 149.449219 C 318.375 155.234375 319.558594 161.050781 320.445312 166.851562 Z M 290 171.238281 L 245.414062 177.664062 C 242.996094 161.519531 239.058594 145.609375 233.6875 130.121094 C 249.765625 131.15625 265.816406 133.734375 281.648438 137.777344 C 285.421875 148.476562 288.238281 159.660156 290 171.238281 Z M 242.496094 178.082031 L 188.742188 185.828125 L 180.996094 132.074219 C 197.363281 129.808594 213.945312 129.113281 230.523438 129.976562 C 236.035156 145.636719 240.046875 161.742188 242.496094 178.082031 Z M 180.574219 129.152344 L 174.152344 84.566406 C 185.757812 82.988281 197.277344 82.535156 208.605469 83.132812 C 216.957031 97.183594 223.960938 111.851562 229.492188 126.984375 C 213.117188 126.199219 196.742188 126.914062 180.574219 129.152344 Z M 173.730469 81.652344 L 169.765625 54.125 C 175.582031 53.335938 181.492188 52.828125 187.46875 52.648438 C 194.546875 61.449219 200.988281 70.617188 206.792969 80.085938 C 195.910156 79.628906 184.855469 80.136719 173.730469 81.652344 Z M 169.34375 51.207031 L 167.550781 38.769531 C 169.925781 38.449219 172.3125 38.183594 174.714844 37.960938 C 178.324219 41.832031 181.824219 45.773438 185.164062 49.808594 C 179.828125 50.042969 174.546875 50.503906 169.34375 51.207031 Z M 167.132812 35.855469 L 166.171875 29.203125 C 168.207031 31.195312 170.226562 33.191406 172.183594 35.230469 C 170.488281 35.410156 168.808594 35.628906 167.132812 35.855469 Z M 164.21875 36.277344 C 162.542969 36.53125 160.871094 36.796875 159.195312 37.101562 C 160.496094 34.59375 161.871094 32.105469 163.257812 29.621094 Z M 164.636719 39.191406 L 166.429688 51.628906 C 161.238281 52.421875 156.042969 53.46875 150.859375 54.753906 C 152.921875 49.9375 155.167969 45.167969 157.535156 40.4375 C 159.902344 39.972656 162.269531 39.554688 164.636719 39.191406 Z M 166.847656 54.542969 L 170.816406 82.074219 C 159.714844 83.761719 148.96875 86.394531 138.65625 89.90625 C 141.550781 79.179688 145.140625 68.566406 149.445312 58.125 C 155.234375 56.613281 161.046875 55.433594 166.847656 54.542969 Z M 171.234375 84.988281 L 177.660156 129.574219 C 161.519531 131.992188 145.609375 135.925781 130.121094 141.300781 C 131.15625 125.222656 133.730469 109.175781 137.777344 93.339844 C 148.472656 89.566406 159.65625 86.75 171.234375 84.988281 Z M 178.082031 132.492188 L 185.828125 186.25 L 132.070312 193.996094 C 129.804688 177.625 129.109375 161.042969 129.972656 144.464844 C 145.632812 138.953125 161.738281 134.941406 178.082031 132.492188 Z M 129.152344 194.414062 L 84.566406 200.839844 C 82.988281 189.234375 82.53125 177.710938 83.132812 166.382812 C 97.179688 158.035156 111.851562 151.03125 126.980469 145.496094 C 126.199219 161.875 126.914062 178.246094 129.152344 194.414062 Z M 81.652344 201.257812 L 54.121094 205.226562 C 53.335938 199.410156 52.828125 193.5 52.644531 187.519531 C 61.445312 180.445312 70.613281 174 80.085938 168.199219 C 79.628906 179.078125 80.136719 190.132812 81.652344 201.257812 Z M 51.207031 205.644531 L 38.769531 207.4375 C 38.449219 205.066406 38.179688 202.675781 37.960938 200.273438 C 41.832031 196.664062 45.769531 193.164062 49.808594 189.828125 C 50.039062 195.160156 50.503906 200.445312 51.207031 205.644531 Z M 35.855469 207.859375 L 29.199219 208.816406 C 31.191406 206.785156 33.1875 204.765625 35.230469 202.808594 C 35.410156 204.5 35.628906 206.179688 35.855469 207.859375 Z M 36.273438 210.773438 C 36.53125 212.445312 36.792969 214.117188 37.101562 215.789062 C 34.59375 214.492188 32.105469 213.117188 29.625 211.730469 Z M 39.1875 210.355469 L 51.628906 208.5625 C 52.421875 213.75 53.464844 218.945312 54.75 224.128906 C 49.933594 222.066406 45.167969 219.820312 40.433594 217.453125 C 39.96875 215.085938 39.550781 212.71875 39.1875 210.355469 Z M 54.542969 208.140625 L 82.070312 204.175781 C 83.757812 215.277344 86.390625 226.019531 89.902344 236.332031 C 79.179688 233.4375 68.566406 229.84375 58.121094 225.539062 C 56.609375 219.753906 55.429688 213.941406 54.542969 208.140625 Z M 84.984375 203.753906 L 129.574219 197.328125 C 131.992188 213.472656 135.925781 229.378906 141.300781 244.867188 C 125.222656 243.832031 109.171875 241.253906 93.335938 237.210938 C 89.5625 226.515625 86.746094 215.332031 84.984375 203.753906 Z M 132.488281 196.910156 L 186.246094 189.164062 L 193.992188 242.917969 C 177.625 245.183594 161.039062 245.878906 144.460938 245.011719 C 138.949219 229.355469 134.9375 213.25 132.488281 196.910156 Z M 194.414062 245.835938 L 200.835938 290.421875 C 189.230469 292.003906 177.707031 292.457031 166.378906 291.855469 C 158.03125 277.808594 151.027344 263.140625 145.492188 248.007812 C 161.871094 248.789062 178.242188 248.074219 194.414062 245.835938 Z M 201.257812 293.339844 L 205.222656 320.867188 C 199.40625 321.652344 193.496094 322.160156 187.515625 322.34375 C 180.441406 313.542969 173.996094 304.375 168.195312 294.902344 C 179.078125 295.359375 190.128906 294.855469 201.257812 293.339844 Z M 205.644531 323.78125 L 207.4375 336.21875 C 205.0625 336.539062 202.671875 336.808594 200.269531 337.03125 C 196.660156 333.160156 193.160156 329.21875 189.824219 325.179688 C 195.15625 324.949219 200.441406 324.484375 205.644531 323.78125 Z M 207.855469 339.136719 L 208.816406 345.789062 C 206.78125 343.800781 204.761719 341.800781 202.804688 339.757812 C 204.496094 339.582031 206.179688 339.363281 207.855469 339.136719 Z M 210.769531 338.714844 C 212.445312 338.460938 214.117188 338.195312 215.789062 337.886719 C 214.488281 340.398438 213.117188 342.882812 211.730469 345.367188 Z M 210.351562 335.800781 L 208.558594 323.363281 C 213.75 322.570312 218.945312 321.523438 224.128906 320.238281 C 222.066406 325.054688 219.820312 329.820312 217.449219 334.554688 C 215.082031 335.019531 212.71875 335.4375 210.351562 335.800781 Z M 208.140625 320.445312 L 204.171875 292.917969 C 215.273438 291.230469 226.019531 288.597656 236.328125 285.085938 C 233.4375 295.8125 229.84375 306.421875 225.539062 316.867188 C 219.753906 318.378906 213.941406 319.558594 208.140625 320.445312 Z M 203.753906 290.003906 L 197.328125 245.417969 C 213.46875 243 229.378906 239.0625 244.867188 233.691406 C 243.832031 249.769531 241.253906 265.816406 237.210938 281.652344 C 226.511719 285.425781 215.332031 288.242188 203.753906 290.003906 Z M 196.90625 242.496094 L 189.160156 188.742188 L 242.917969 181 C 245.179688 197.367188 245.878906 213.949219 245.011719 230.527344 C 229.351562 236.035156 213.25 240.050781 196.90625 242.496094 Z M 245.832031 180.578125 L 290.421875 174.152344 C 292 185.757812 292.457031 197.28125 291.855469 208.609375 C 277.804688 216.957031 263.136719 223.960938 248.003906 229.496094 C 248.785156 213.117188 248.070312 196.746094 245.832031 180.578125 Z M 293.335938 173.734375 L 320.863281 169.765625 C 321.652344 175.582031 322.160156 181.496094 322.34375 187.472656 C 313.539062 194.550781 304.371094 200.992188 294.902344 206.792969 C 295.359375 195.914062 294.851562 184.859375 293.335938 173.734375 Z M 323.78125 169.347656 L 336.21875 167.554688 C 336.539062 169.925781 336.804688 172.316406 337.027344 174.71875 C 333.15625 178.328125 329.214844 181.828125 325.179688 185.167969 C 324.949219 179.832031 324.484375 174.550781 323.78125 169.347656 Z M 339.132812 167.132812 L 345.789062 166.175781 C 343.796875 168.207031 341.796875 170.230469 339.757812 172.1875 C 339.578125 170.492188 339.359375 168.8125 339.132812 167.132812 Z M 337.148438 155.542969 C 336.519531 152.492188 335.824219 149.445312 335.027344 146.402344 C 338.628906 150.703125 342.070312 155.183594 345.316406 159.871094 C 342.605469 158.378906 339.886719 156.929688 337.148438 155.542969 Z M 333.796875 153.871094 C 329.003906 151.523438 324.183594 149.289062 319.308594 147.25 C 317.019531 138.78125 314.074219 130.386719 310.464844 122.183594 C 317.566406 127.941406 324.257812 134.296875 330.5 141.199219 C 331.761719 145.40625 332.867188 149.632812 333.796875 153.871094 Z M 280.453125 134.429688 C 264.667969 130.523438 248.675781 128.074219 232.660156 127.117188 C 227.222656 112.027344 220.359375 97.378906 212.15625 83.335938 C 228.042969 84.488281 243.503906 87.757812 258.222656 92.949219 C 267.359375 105.605469 274.859375 119.515625 280.453125 134.429688 Z M 188.886719 49.679688 C 185.554688 45.582031 182.050781 41.585938 178.445312 37.652344 C 182.773438 37.347656 187.140625 37.210938 191.53125 37.234375 C 199.914062 41.273438 207.902344 45.898438 215.429688 51.085938 C 206.542969 49.941406 197.65625 49.484375 188.886719 49.679688 Z M 175.898438 34.910156 C 173.792969 32.671875 171.636719 30.472656 169.441406 28.296875 C 174.851562 30.085938 180.121094 32.121094 185.257812 34.359375 C 182.121094 34.457031 179 34.648438 175.898438 34.910156 Z M 155.542969 37.839844 C 152.492188 38.46875 149.445312 39.164062 146.40625 39.960938 C 150.703125 36.359375 155.179688 32.917969 159.867188 29.675781 C 158.375 32.382812 156.929688 35.101562 155.542969 37.839844 Z M 153.871094 41.191406 C 151.523438 45.984375 149.289062 50.804688 147.25 55.679688 C 138.78125 57.96875 130.386719 60.914062 122.183594 64.523438 C 127.941406 57.421875 134.296875 50.730469 141.199219 44.488281 C 145.40625 43.226562 149.632812 42.121094 153.871094 41.191406 Z M 134.429688 94.535156 C 130.523438 110.320312 128.074219 126.3125 127.117188 142.324219 C 112.027344 147.765625 97.375 154.628906 83.332031 162.835938 C 84.488281 146.945312 87.757812 131.484375 92.949219 116.765625 C 105.601562 107.628906 119.511719 100.128906 134.429688 94.535156 Z M 49.679688 186.101562 C 45.578125 189.433594 41.582031 192.941406 37.648438 196.546875 C 37.347656 192.21875 37.210938 187.851562 37.234375 183.460938 C 41.273438 175.078125 45.898438 167.089844 51.082031 159.5625 C 49.9375 168.449219 49.484375 177.332031 49.679688 186.101562 Z M 34.90625 199.09375 C 32.671875 201.199219 30.472656 203.351562 28.296875 205.546875 C 30.085938 200.136719 32.121094 194.871094 34.359375 189.734375 C 34.453125 192.871094 34.644531 195.992188 34.90625 199.09375 Z M 37.839844 219.445312 C 38.464844 222.496094 39.160156 225.542969 39.957031 228.582031 C 36.359375 224.285156 32.917969 219.804688 29.675781 215.121094 C 32.382812 216.613281 35.101562 218.058594 37.839844 219.445312 Z M 41.191406 221.117188 C 45.980469 223.464844 50.804688 225.699219 55.675781 227.738281 C 57.96875 236.207031 60.910156 244.601562 64.519531 252.800781 C 57.417969 247.042969 50.726562 240.6875 44.484375 233.785156 C 43.222656 229.578125 42.121094 225.355469 41.191406 221.117188 Z M 94.53125 240.558594 C 110.320312 244.464844 126.3125 246.914062 142.324219 247.871094 C 147.765625 262.960938 154.625 277.613281 162.832031 291.65625 C 146.941406 290.5 131.480469 287.230469 116.761719 282.039062 C 107.625 269.382812 100.125 255.476562 94.53125 240.558594 Z M 186.101562 325.308594 C 189.433594 329.410156 192.9375 333.40625 196.542969 337.339844 C 192.214844 337.644531 187.847656 337.777344 183.457031 337.753906 C 175.070312 333.714844 167.082031 329.089844 159.554688 323.90625 C 168.441406 325.050781 177.328125 325.503906 186.101562 325.308594 Z M 199.089844 340.082031 C 201.195312 342.316406 203.351562 344.519531 205.546875 346.695312 C 200.132812 344.90625 194.867188 342.871094 189.726562 340.628906 C 192.867188 340.535156 195.988281 340.34375 199.089844 340.082031 Z M 219.445312 337.148438 C 222.496094 336.523438 225.542969 335.828125 228.582031 335.03125 C 224.285156 338.632812 219.804688 342.070312 215.117188 345.316406 C 216.609375 342.609375 218.058594 339.886719 219.445312 337.148438 Z M 221.113281 333.800781 C 223.460938 329.007812 225.695312 324.183594 227.734375 319.3125 C 236.203125 317.023438 244.601562 314.078125 252.800781 310.46875 C 247.046875 317.570312 240.6875 324.261719 233.785156 330.503906 C 229.578125 331.765625 225.351562 332.867188 221.113281 333.800781 Z M 240.558594 280.457031 C 244.464844 264.667969 246.910156 248.679688 247.871094 232.664062 C 262.960938 227.226562 277.609375 220.363281 291.652344 212.160156 C 290.496094 228.046875 287.230469 243.507812 282.039062 258.226562 C 269.382812 267.363281 255.472656 274.863281 240.558594 280.457031 Z M 325.308594 188.890625 C 329.410156 185.558594 333.402344 182.054688 337.335938 178.449219 C 337.640625 182.777344 337.777344 187.144531 337.753906 191.535156 C 333.714844 199.921875 329.089844 207.910156 323.902344 215.433594 C 325.046875 206.546875 325.503906 197.660156 325.308594 188.890625 Z M 340.082031 175.902344 C 342.316406 173.796875 344.519531 171.640625 346.695312 169.445312 C 344.90625 174.855469 342.867188 180.125 340.628906 185.265625 C 340.53125 182.125 340.339844 179.003906 340.082031 175.902344 Z M 333.140625 139.730469 C 331.023438 132.769531 328.472656 125.875 325.46875 119.128906 C 332.671875 129.246094 338.988281 140.632812 344.234375 153.316406 C 340.726562 148.578125 337.019531 144.050781 333.140625 139.730469 Z M 328.386719 134.628906 C 321.929688 127.964844 315.042969 121.851562 307.769531 116.328125 C 301.191406 102.753906 292.75 89.839844 282.472656 78.171875 C 294.789062 86.03125 306.289062 95.789062 316.46875 107.621094 C 321.25 116.335938 325.214844 125.398438 328.386719 134.628906 Z M 302.535156 112.503906 C 289.394531 103.261719 275.128906 95.871094 260.074219 90.472656 C 250.652344 77.558594 239.53125 65.957031 226.953125 55.960938 C 242.871094 59.164062 258.574219 64.695312 273.328125 72.753906 C 285.226562 84.632812 294.96875 98.136719 302.535156 112.503906 Z M 221.804688 52.019531 C 214.457031 46.601562 206.644531 41.71875 198.429688 37.410156 C 208.179688 37.84375 217.992188 39.089844 227.703125 41.214844 C 241.925781 47.640625 254.53125 55.914062 265.550781 65.515625 C 251.457031 58.949219 236.6875 54.496094 221.804688 52.019531 Z M 192.195312 34.289062 C 186.957031 31.789062 181.570312 29.511719 176.03125 27.484375 C 189.679688 28.933594 202.382812 31.78125 214.121094 35.832031 C 206.796875 34.855469 199.46875 34.351562 192.195312 34.289062 Z M 139.730469 41.847656 C 132.769531 43.960938 125.878906 46.515625 119.132812 49.519531 C 129.246094 42.320312 140.632812 36 153.316406 30.757812 C 148.574219 34.265625 144.050781 37.96875 139.730469 41.847656 Z M 134.632812 46.601562 C 127.964844 53.058594 121.851562 59.945312 116.328125 67.222656 C 102.753906 73.796875 89.835938 82.238281 78.171875 92.519531 C 86.03125 80.199219 95.789062 68.699219 107.621094 58.519531 C 116.335938 53.738281 125.398438 49.773438 134.632812 46.601562 Z M 112.503906 72.453125 C 103.257812 85.59375 95.867188 99.863281 90.472656 114.914062 C 77.554688 124.339844 65.957031 135.457031 55.960938 148.035156 C 59.160156 132.121094 64.695312 116.414062 72.753906 101.660156 C 84.632812 89.765625 98.136719 80.019531 112.503906 72.453125 Z M 52.019531 153.183594 C 46.601562 160.535156 41.71875 168.347656 37.40625 176.5625 C 37.84375 166.8125 39.085938 157 41.210938 147.289062 C 47.640625 133.066406 55.914062 120.460938 65.511719 109.441406 C 58.945312 123.53125 54.496094 138.304688 52.019531 153.183594 Z M 34.285156 182.796875 C 31.785156 188.035156 29.507812 193.421875 27.484375 198.957031 C 28.933594 185.3125 31.777344 172.609375 35.828125 160.875 C 34.855469 168.195312 34.347656 175.523438 34.285156 182.796875 Z M 41.84375 235.253906 C 43.957031 242.214844 46.511719 249.101562 49.515625 255.847656 C 42.316406 245.734375 36 234.351562 30.753906 221.671875 C 34.261719 226.410156 37.96875 230.933594 41.84375 235.253906 Z M 46.597656 240.355469 C 53.054688 247.019531 59.941406 253.132812 67.214844 258.65625 C 73.792969 272.230469 82.234375 285.144531 92.511719 296.8125 C 80.191406 288.949219 68.695312 279.195312 58.511719 267.359375 C 53.734375 258.648438 49.769531 249.582031 46.597656 240.355469 Z M 72.449219 262.484375 C 85.589844 271.726562 99.855469 279.117188 114.910156 284.515625 C 124.335938 297.429688 135.453125 309.03125 148.03125 319.027344 C 132.113281 315.824219 116.40625 310.289062 101.652344 302.230469 C 89.757812 290.351562 80.015625 276.847656 72.449219 262.484375 Z M 153.179688 322.96875 C 160.527344 328.386719 168.339844 333.269531 176.558594 337.582031 C 166.804688 337.144531 156.992188 335.902344 147.28125 333.777344 C 133.054688 327.347656 120.449219 319.070312 109.433594 309.472656 C 123.523438 316.039062 138.296875 320.492188 153.179688 322.96875 Z M 182.792969 340.703125 C 188.03125 343.203125 193.417969 345.480469 198.953125 347.507812 C 185.304688 346.058594 172.601562 343.210938 160.863281 339.15625 C 168.183594 340.132812 175.515625 340.640625 182.792969 340.703125 Z M 235.253906 333.144531 C 242.214844 331.03125 249.105469 328.476562 255.851562 325.472656 C 245.734375 332.675781 234.351562 338.992188 221.671875 344.234375 C 226.410156 340.726562 230.933594 337.019531 235.253906 333.144531 Z M 240.355469 328.390625 C 247.019531 321.9375 253.136719 315.046875 258.65625 307.773438 C 272.230469 301.195312 285.144531 292.753906 296.8125 282.480469 C 288.949219 294.796875 279.195312 306.292969 267.363281 316.476562 C 258.648438 321.253906 249.585938 325.21875 240.355469 328.390625 Z M 262.484375 302.539062 C 271.726562 289.398438 279.117188 275.132812 284.515625 260.082031 C 297.429688 250.65625 309.03125 239.539062 319.027344 226.960938 C 315.824219 242.878906 310.289062 258.585938 302.230469 273.335938 C 290.351562 285.234375 276.847656 294.972656 262.484375 302.539062 Z M 322.964844 221.8125 C 328.386719 214.460938 333.269531 206.652344 337.578125 198.433594 C 337.144531 208.1875 335.898438 218 333.773438 227.710938 C 327.34375 241.9375 319.070312 254.539062 309.472656 265.558594 C 316.039062 251.464844 320.488281 236.691406 322.964844 221.8125 Z M 340.699219 192.199219 C 343.199219 186.960938 345.480469 181.574219 347.507812 176.035156 C 346.054688 189.683594 343.210938 202.390625 339.15625 214.132812 C 340.132812 206.808594 340.636719 199.476562 340.699219 192.199219 Z M 318.894531 105.882812 C 313.167969 95.488281 306.3125 85.597656 298.351562 76.492188 C 316.027344 92.082031 330.816406 112.601562 340.710938 138.585938 C 334.4375 126.328125 327.089844 115.445312 318.894531 105.882812 Z M 309.128906 95.484375 C 298.703125 85.339844 287.230469 77.015625 275.117188 70.359375 C 265.316406 60.621094 254.09375 51.964844 241.417969 44.828125 C 255.050781 49.046875 268.277344 55.078125 280.597656 63.042969 C 291.71875 72.613281 301.238281 83.597656 309.128906 95.484375 Z M 228.679688 38.398438 C 217.199219 33.238281 204.683594 29.261719 191.15625 26.703125 C 218.878906 28.859375 242.734375 37.25 262.679688 49.804688 C 251.695312 44.742188 240.269531 40.957031 228.679688 38.398438 Z M 105.886719 56.09375 C 95.488281 61.820312 85.597656 68.675781 76.492188 76.636719 C 92.082031 58.960938 112.597656 44.171875 138.585938 34.277344 C 126.328125 40.554688 115.445312 47.898438 105.886719 56.09375 Z M 95.484375 65.859375 C 85.339844 76.285156 77.015625 87.757812 70.359375 99.871094 C 60.621094 109.675781 51.964844 120.898438 44.828125 133.574219 C 49.042969 119.941406 55.074219 106.710938 63.039062 94.390625 C 72.609375 83.269531 83.597656 73.75 95.484375 65.859375 Z M 38.394531 146.3125 C 33.234375 157.792969 29.261719 170.308594 26.703125 183.835938 C 28.859375 156.113281 37.25 132.257812 49.800781 112.3125 C 44.738281 123.296875 40.953125 134.722656 38.394531 146.3125 Z M 56.085938 269.09375 C 61.8125 279.492188 68.667969 289.386719 76.628906 298.492188 C 58.957031 282.902344 44.171875 262.386719 34.277344 236.398438 C 40.550781 248.65625 47.894531 259.539062 56.085938 269.09375 Z M 65.847656 279.496094 C 76.273438 289.640625 87.75 297.96875 99.863281 304.625 C 109.664062 314.363281 120.890625 323.023438 133.566406 330.160156 C 119.933594 325.941406 106.703125 319.910156 94.382812 311.945312 C 83.261719 302.371094 73.742188 291.382812 65.847656 279.496094 Z M 146.300781 336.589844 C 157.785156 341.753906 170.300781 345.726562 183.832031 348.289062 C 156.105469 346.132812 132.246094 337.734375 112.296875 325.179688 C 123.28125 330.246094 134.710938 334.03125 146.300781 336.589844 Z M 269.097656 318.902344 C 279.492188 313.175781 289.386719 306.320312 298.492188 298.359375 C 282.902344 316.035156 262.386719 330.820312 236.398438 340.714844 C 248.65625 334.4375 259.539062 327.09375 269.097656 318.902344 Z M 279.496094 309.140625 C 289.644531 298.714844 297.96875 287.238281 304.621094 275.128906 C 314.363281 265.324219 323.019531 254.101562 330.15625 241.425781 C 325.941406 255.058594 319.910156 268.289062 311.941406 280.609375 C 302.371094 291.726562 291.382812 301.246094 279.496094 309.140625 Z M 336.589844 228.691406 C 341.753906 217.207031 345.726562 204.691406 348.289062 191.15625 C 346.132812 218.886719 337.734375 242.746094 325.175781 262.695312 C 330.242188 251.710938 334.03125 240.285156 336.589844 228.691406 Z M 333.855469 116.609375 C 320.675781 92.335938 302.777344 73.863281 282.382812 60.644531 C 263.9375 44.808594 241.15625 32.855469 214.140625 27.070312 C 266.015625 35.722656 310.898438 69.292969 333.855469 116.609375 Z M 116.585938 41.148438 C 92.324219 54.324219 73.859375 72.21875 60.644531 92.605469 C 44.816406 111.042969 32.863281 133.808594 27.078125 160.8125 C 35.738281 108.960938 69.296875 64.101562 116.585938 41.148438 Z M 41.136719 258.382812 C 54.308594 282.648438 72.203125 301.117188 92.59375 314.335938 C 111.023438 330.164062 133.789062 342.117188 160.785156 347.910156 C 108.9375 339.238281 64.082031 305.679688 41.136719 258.382812 Z M 258.359375 333.867188 C 282.636719 320.691406 301.113281 302.792969 314.335938 282.394531 C 330.171875 263.957031 342.128906 241.179688 347.914062 214.164062 C 339.253906 266.039062 305.679688 310.917969 258.359375 333.867188 Z M 258.359375 333.867188 " fill-opacity="1" fill-rule="nonzero"/></g></g></g><path stroke-linecap="butt" transform="matrix(1.930714, 0.100847, -0.100847, 1.930714, 55.196247, 142.547921)" fill="none" stroke-linejoin="miter" d="M 1.855591 47.15472 C 1.189973 47.155093 0.679614 46.874221 0.324515 46.312107 C 0.0737497 45.888191 -0.0267876 45.551519 0.0268337 45.299862 C 0.0785427 45.050329 0.156664 44.609234 0.259179 43.976683 L 8.13483 11.232315 C 8.273091 10.703104 8.493099 10.228296 8.796662 9.80375 C 9.098312 9.381328 9.495877 9.168356 9.989568 9.168871 L 23.326567 9.168224 C 23.820259 9.168738 24.217761 9.380645 24.521093 9.803839 C 24.822512 10.229156 25.047665 10.70499 25.194533 11.231448 L 33.057543 43.977184 C 33.161361 44.609074 33.247096 45.049703 33.316871 45.300984 C 33.384523 45.550352 33.28085 45.889598 33.005536 46.312668 C 32.650521 46.875456 32.135055 47.155282 31.461366 47.156076 C 28.841265 47.155354 26.804372 47.164633 25.350582 47.181896 C 23.896792 47.199159 22.850068 47.146602 22.210515 47.026243 C 21.570857 46.903867 21.143541 46.624728 20.926233 46.182879 C 20.718592 45.732432 20.528254 45.032225 20.355113 44.080242 L 20.030391 42.43412 L 13.284902 42.432396 L 12.960253 44.080064 C 12.787417 45.03191 12.593336 45.731964 12.376099 46.182349 C 12.168528 46.624136 11.746193 46.905167 11.105058 47.025654 C 10.46594 47.146035 9.418643 47.198715 7.965079 47.181572 C 6.513533 47.164323 4.475692 47.155442 1.855591 47.15472 Z M 15.087784 32.17157 L 18.227806 32.171438 L 16.68461 23.349898 Z M 15.087784 32.17157 " stroke="#ffffff" stroke-width="8.104322" stroke-opacity="1" stroke-miterlimit="4"/><path stroke-linecap="butt" transform="matrix(1.929934, -0.114816, 0.114816, 1.929934, 116.802023, 146.01749)" fill="none" stroke-linejoin="miter" d="M 19.395606 47.32517 C 18.972635 47.324294 18.583324 47.199932 18.227911 46.948047 C 17.908802 46.698323 17.677905 46.360741 17.541272 45.935662 L 13.337722 35.518864 L 13.609963 45.027776 C 13.644751 45.701824 13.449106 46.23465 13.025162 46.624355 C 12.558722 47.047965 12.060388 47.259178 11.534076 47.26025 L 2.128643 47.324101 C 1.555822 47.324431 1.077573 47.130008 0.687844 46.740472 C 0.298596 46.342868 0.103541 45.811087 0.104697 45.145249 L -0.000626769 10.920679 C 0.000917159 10.384402 0.212675 9.886944 0.636664 9.428424 C 1.024206 9.004168 1.488132 8.792933 2.024529 8.79246 L 10.624672 8.792023 C 11.195356 8.79359 11.692815 9.005348 12.116927 9.429314 C 12.50661 9.887664 12.701687 10.385038 12.700263 10.919298 L 12.960469 21.753235 L 17.903225 10.388861 C 18.084347 9.93006 18.353423 9.591863 18.708317 9.376164 C 19.028301 9.202918 19.452398 9.116826 19.97859 9.11777 L 28.853796 9.052736 C 29.527822 9.052355 30.060316 9.389664 30.449261 10.064542 C 30.872779 10.668611 30.941877 11.310292 30.656916 11.983535 L 23.481954 28.34401 L 30.825865 44.560279 C 31.032546 45.270867 30.942167 45.939493 30.552351 46.572088 C 30.12983 47.142017 29.546021 47.429106 28.801284 47.427305 Z M 19.395606 47.32517 " stroke="#ffffff" stroke-width="8.104322" stroke-opacity="1" stroke-miterlimit="4"/><path stroke-linecap="butt" transform="matrix(1.914375, -0.27018, 0.27018, 1.914375, 175.582404, 142.075539)" fill="none" stroke-linejoin="miter" d="M 11.69 47.000937 L 2.024382 46.999849 C 1.487768 46.999614 1.015659 46.78811 0.610338 46.363619 C 0.202734 45.940846 -0.000949839 45.461153 -0.00071419 44.924539 L 0.103319 11.81605 C 0.104023 11.218287 0.298062 10.725349 0.687719 10.335517 C 1.077094 9.947685 1.557658 9.752286 2.126847 9.753038 L 12.324021 9.80466 C 12.860635 9.804895 13.35016 10.008655 13.79088 10.413656 C 14.231317 10.820658 14.435331 11.326924 14.400923 11.932172 L 13.764367 44.924696 C 13.765615 45.494167 13.561855 45.983692 13.155653 46.389554 C 12.749167 46.797416 12.259471 46.999688 11.69 47.000937 Z M 11.69 47.000937 " stroke="#ffffff" stroke-width="8.104322" stroke-opacity="1" stroke-miterlimit="4"/><path stroke-linecap="butt" transform="matrix(1.886219, -0.424271, 0.424271, 1.886219, 202.441851, 139.147256)" fill="none" stroke-linejoin="miter" d="M 2.023384 47.000174 C 1.453811 47.000457 0.972975 46.753548 0.584817 46.260334 C 0.194491 45.758349 0.000201471 45.296317 0.000420451 44.871823 L 0.10284 11.556835 C 0.104271 10.06815 0.882643 9.323732 2.439925 9.324026 L 10.728499 9.376318 C 14.206108 9.410934 17.255836 9.653734 19.876156 10.102305 C 22.495835 10.544518 24.551097 11.452065 26.037111 12.828001 C 27.707933 14.349053 28.620673 16.395425 28.776217 18.963174 C 28.931318 21.532895 28.14441 24.396037 26.413523 27.552157 C 27.720018 28.26229 28.753771 29.273488 29.514338 30.587724 C 30.276678 31.894075 30.764341 33.316743 30.981271 34.856616 C 31.1982 36.396489 31.129208 37.909325 30.773851 39.397097 C 30.418494 40.884869 29.760644 42.143067 28.802273 43.172135 C 27.772057 44.272022 26.540911 45.105123 25.103563 45.676464 C 23.668431 46.237949 21.903066 46.619536 19.810325 46.817725 C 17.725271 47.00936 15.231338 47.094529 12.325225 47.0787 C 9.419555 47.060901 5.985756 47.034068 2.023384 47.000174 Z M 12.273065 38.333805 L 15.257236 38.334056 C 16.278258 38.333842 17.125163 38.122575 17.800363 37.698728 C 18.473593 37.274437 18.915448 36.746329 19.123515 36.115932 C 19.340156 35.475038 19.260677 34.852445 18.889464 34.24707 C 18.518252 33.641695 17.808349 33.161019 16.761284 32.807457 C 15.714663 32.451923 14.253024 32.330248 12.375925 32.444402 Z M 12.545624 24.51773 C 14.13622 24.517233 15.296386 24.183831 16.022181 23.516638 C 16.749306 22.843531 17.08633 22.090962 17.034779 21.261344 C 16.983474 20.421427 16.584018 19.720649 15.840797 19.157925 C 15.097379 18.586872 14.033422 18.409683 12.648928 18.626356 Z M 12.545624 24.51773 " stroke="#ffffff" stroke-width="8.104322" stroke-opacity="1" stroke-miterlimit="4"/><path stroke-linecap="butt" transform="matrix(1.827065, -0.632187, 0.632187, 1.827065, 258.540837, 127.04378)" fill="none" stroke-linejoin="miter" d="M 1.855502 47.155725 C 1.188419 47.155809 0.678525 46.874618 0.32391 46.311491 C 0.0724893 45.888831 -0.0265437 45.55097 0.0261508 45.299816 C 0.0781846 45.050571 0.156043 44.609291 0.259066 43.977885 L 8.134707 11.231536 C 8.27233 10.704035 8.492428 10.22859 8.795 9.8052 C 9.098232 9.3799 9.496149 9.169091 9.990072 9.168955 L 23.326583 9.169765 C 23.818597 9.168968 24.217448 9.381806 24.51998 9.805046 C 24.822512 10.228286 25.047136 10.703675 25.195762 11.231874 L 33.05597 43.977554 C 33.160621 44.608126 33.246963 45.050634 33.316317 45.301258 C 33.385671 45.551883 33.282171 45.888081 33.005154 46.311762 C 32.649874 46.875126 32.136159 47.154904 31.460118 47.156165 C 28.840989 47.156423 26.803245 47.16329 25.349383 47.181906 C 23.898092 47.199273 22.851418 47.14712 22.21127 47.026107 C 21.571123 46.905094 21.142375 46.624186 20.927595 46.182135 C 20.719277 45.733768 20.52789 45.032562 20.354684 44.081088 L 20.030921 42.433985 L 13.286 42.432709 L 12.961186 44.082024 C 12.788073 45.033395 12.592898 45.733401 12.377571 46.182703 C 12.169365 46.623779 11.745094 46.904574 11.104757 47.025089 C 10.465669 47.148173 9.419742 47.198902 7.965655 47.181094 C 6.513478 47.163947 4.47654 47.156127 1.855502 47.155725 Z M 15.087602 32.17157 L 18.228118 32.172127 L 16.684355 23.348974 Z M 15.087602 32.17157 " stroke="#ffffff" stroke-width="8.104322" stroke-opacity="1" stroke-miterlimit="4"/><g fill="#f652a0" fill-opacity="1"><g transform="translate(50.456425, 233.291493)"><g><path d="M 3.578125 0.5 C 2.273438 0.425781 1.304688 -0.171875 0.671875 -1.296875 C 0.242188 -2.140625 0.09375 -2.796875 0.21875 -3.265625 C 0.34375 -3.742188 0.546875 -4.59375 0.828125 -5.8125 L 19.3125 -68.234375 C 19.632812 -69.242188 20.101562 -70.140625 20.71875 -70.921875 C 21.34375 -71.710938 22.132812 -72.085938 23.09375 -72.046875 L 48.84375 -70.6875 C 49.800781 -70.644531 50.550781 -70.195312 51.09375 -69.34375 C 51.632812 -68.5 52.019531 -67.550781 52.25 -66.5 L 64.125 -2.515625 C 64.25 -1.273438 64.367188 -0.410156 64.484375 0.078125 C 64.609375 0.566406 64.367188 1.207031 63.765625 2 C 63.023438 3.0625 62.007812 3.554688 60.71875 3.484375 C 55.65625 3.222656 51.722656 3.035156 48.921875 2.921875 C 46.117188 2.804688 44.101562 2.59375 42.875 2.28125 C 41.65625 1.976562 40.863281 1.390625 40.5 0.515625 C 40.132812 -0.359375 39.832031 -1.734375 39.59375 -3.609375 L 39.140625 -6.796875 L 26.109375 -7.46875 L 25.328125 -4.34375 C 24.890625 -2.507812 24.441406 -1.175781 23.984375 -0.34375 C 23.535156 0.488281 22.6875 0.992188 21.4375 1.171875 C 20.195312 1.347656 18.175781 1.34375 15.375 1.15625 C 12.570312 0.976562 8.640625 0.757812 3.578125 0.5 Z M 30.625 -27.09375 L 36.6875 -26.765625 L 34.609375 -43.96875 Z M 30.625 -27.09375 "/></g></g></g><g fill="#f652a0" fill-opacity="1"><g transform="translate(122.198398, 236.724379)"><g><path d="M 37.46875 -1.625 C 36.644531 -1.570312 35.878906 -1.765625 35.171875 -2.203125 C 34.523438 -2.640625 34.039062 -3.257812 33.71875 -4.0625 L 24.421875 -23.671875 L 26.03125 -5.359375 C 26.175781 -4.054688 25.859375 -3.007812 25.078125 -2.21875 C 24.234375 -1.34375 23.300781 -0.875 22.28125 -0.8125 L 4.140625 0.359375 C 3.046875 0.429688 2.097656 0.113281 1.296875 -0.59375 C 0.503906 -1.300781 0.0664062 -2.304688 -0.015625 -3.609375 L -4.140625 -69.625 C -4.203125 -70.65625 -3.847656 -71.644531 -3.078125 -72.59375 C -2.378906 -73.445312 -1.515625 -73.90625 -0.484375 -73.96875 L 16.125 -74.953125 C 17.207031 -75.015625 18.1875 -74.664062 19.0625 -73.90625 C 19.863281 -73.050781 20.296875 -72.109375 20.359375 -71.078125 L 22.125 -50.1875 L 30.359375 -72.71875 C 30.648438 -73.632812 31.125 -74.3125 31.78125 -74.75 C 32.382812 -75.132812 33.195312 -75.359375 34.21875 -75.421875 L 51.328125 -76.546875 C 52.617188 -76.617188 53.679688 -76.03125 54.515625 -74.78125 C 55.398438 -73.65625 55.613281 -72.425781 55.15625 -71.09375 L 43.1875 -38.703125 L 59.1875 -8.234375 C 59.6875 -6.910156 59.597656 -5.613281 58.921875 -4.34375 C 58.160156 -3.1875 57.066406 -2.566406 55.640625 -2.484375 Z M 37.46875 -1.625 "/></g></g></g><g fill="#f652a0" fill-opacity="1"><g transform="translate(188.280865, 232.051142)"><g><path d="M 22.375 -3.15625 L 3.875 -0.546875 C 2.851562 -0.398438 1.894531 -0.675781 1 -1.375 C 0.101562 -2.082031 -0.414062 -2.941406 -0.5625 -3.953125 L -9.296875 -67.375 C -9.460938 -68.519531 -9.222656 -69.519531 -8.578125 -70.375 C -7.941406 -71.226562 -7.082031 -71.734375 -6 -71.890625 L 13.546875 -74.53125 C 14.566406 -74.675781 15.550781 -74.414062 16.5 -73.75 C 17.457031 -73.09375 17.988281 -72.179688 18.09375 -71.015625 L 25.78125 -7.671875 C 25.9375 -6.597656 25.679688 -5.613281 25.015625 -4.71875 C 24.347656 -3.832031 23.46875 -3.3125 22.375 -3.15625 Z M 22.375 -3.15625 "/></g></g></g><g fill="#f652a0" fill-opacity="1"><g transform="translate(222.3826, 227.799542)"><g><path d="M 3.8125 -0.859375 C 2.738281 -0.617188 1.726562 -0.882812 0.78125 -1.65625 C -0.15625 -2.425781 -0.71875 -3.210938 -0.90625 -4.015625 L -14.828125 -66.90625 C -15.460938 -69.707031 -14.3125 -71.4375 -11.375 -72.09375 L 4.296875 -75.5 C 10.847656 -76.925781 16.691406 -77.773438 21.828125 -78.046875 C 26.960938 -78.316406 31.222656 -77.46875 34.609375 -75.5 C 38.398438 -73.332031 40.988281 -69.859375 42.375 -65.078125 C 43.757812 -60.304688 43.488281 -54.570312 41.5625 -47.875 C 44.332031 -47.101562 46.710938 -45.640625 48.703125 -43.484375 C 50.703125 -41.335938 52.226562 -38.851562 53.28125 -36.03125 C 54.34375 -33.21875 54.851562 -30.332031 54.8125 -27.375 C 54.769531 -24.425781 54.066406 -21.773438 52.703125 -19.421875 C 51.234375 -16.921875 49.265625 -14.832031 46.796875 -13.15625 C 44.328125 -11.476562 41.164062 -10.007812 37.3125 -8.75 C 33.457031 -7.5 28.785156 -6.269531 23.296875 -5.0625 C 17.804688 -3.863281 11.3125 -2.460938 3.8125 -0.859375 Z M 19.484375 -21.546875 L 25.09375 -22.8125 C 27.03125 -23.25 28.539062 -24.007812 29.625 -25.09375 C 30.71875 -26.1875 31.328125 -27.375 31.453125 -28.65625 C 31.578125 -29.945312 31.160156 -31.082031 30.203125 -32.0625 C 29.253906 -33.050781 27.71875 -33.65625 25.59375 -33.875 C 23.46875 -34.101562 20.664062 -33.71875 17.1875 -32.71875 Z M 14.125 -47.71875 C 17.132812 -48.394531 19.175781 -49.519531 20.25 -51.09375 C 21.332031 -52.675781 21.644531 -54.238281 21.1875 -55.78125 C 20.738281 -57.332031 19.691406 -58.484375 18.046875 -59.234375 C 16.410156 -59.984375 14.335938 -59.863281 11.828125 -58.875 Z M 14.125 -47.71875 "/></g></g></g><g fill="#f652a0" fill-opacity="1"><g transform="translate(288.253617, 212.915849)"><g><path d="M 3.5 -0.875 C 2.269531 -0.445312 1.148438 -0.640625 0.140625 -1.453125 C -0.585938 -2.078125 -0.976562 -2.628906 -1.03125 -3.109375 C -1.09375 -3.597656 -1.226562 -4.460938 -1.4375 -5.703125 L -7.75 -70.484375 C -7.832031 -71.535156 -7.734375 -72.546875 -7.453125 -73.515625 C -7.171875 -74.484375 -6.578125 -75.125 -5.671875 -75.4375 L 18.6875 -83.875 C 19.59375 -84.1875 20.457031 -84.046875 21.28125 -83.453125 C 22.101562 -82.867188 22.816406 -82.140625 23.421875 -81.265625 L 58.46875 -26.421875 C 59.0625 -25.328125 59.503906 -24.570312 59.796875 -24.15625 C 60.085938 -23.75 60.109375 -23.066406 59.859375 -22.109375 C 59.566406 -20.847656 58.804688 -20.007812 57.578125 -19.59375 C 52.796875 -17.9375 49.082031 -16.628906 46.4375 -15.671875 C 43.789062 -14.722656 41.84375 -14.160156 40.59375 -13.984375 C 39.34375 -13.816406 38.382812 -14.066406 37.71875 -14.734375 C 37.0625 -15.410156 36.269531 -16.566406 35.34375 -18.203125 L 33.71875 -21.015625 L 21.390625 -16.75 L 21.84375 -13.53125 C 22.125 -11.675781 22.207031 -10.273438 22.09375 -9.328125 C 21.988281 -8.390625 21.394531 -7.601562 20.3125 -6.96875 C 19.226562 -6.34375 17.351562 -5.582031 14.6875 -4.6875 C 12.03125 -3.800781 8.300781 -2.53125 3.5 -0.875 Z M 18.1875 -36.609375 L 23.921875 -38.59375 L 15.53125 -53.75 Z M 18.1875 -36.609375 "/></g></g></g><path stroke-linecap="butt" transform="matrix(1.518734, 0.0114018, -0.0114018, 1.518734, 111.346375, 246.93889)" fill="none" stroke-linejoin="miter" d="M 12.725267 2.125796 L 19.811448 1.810248 L 18.892668 26.745385 L 13.228129 26.967954 L 7.40236 14.62216 L 6.963264 26.366832 L 0.633081 27.000781 L 0.819704 1.839658 L 7.658767 1.839755 L 12.655882 12.411916 Z M 12.725267 2.125796 " stroke="#ffffff" stroke-width="6.965178" stroke-opacity="1" stroke-miterlimit="4"/><path stroke-linecap="butt" transform="matrix(1.516349, -0.0858491, 0.0858491, 1.516349, 143.724048, 247.121703)" fill="none" stroke-linejoin="miter" d="M 18.574712 4.559852 L 19.054394 26.93716 L 12.470593 27.061599 L 12.277903 19.180737 L 7.246977 19.496136 L 6.737241 26.907023 L 0.632661 27.030257 L 1.615361 3.803198 L 2.851295 2.312061 L 16.644297 1.709601 Z M 12.248599 14.374671 L 12.092471 8.077598 L 7.912523 8.423144 L 7.596125 14.05717 Z M 12.248599 14.374671 " stroke="#ffffff" stroke-width="6.965178" stroke-opacity="1" stroke-miterlimit="4"/><path stroke-linecap="butt" transform="matrix(1.508107, -0.179712, 0.179712, 1.508107, 174.952771, 245.295805)" fill="none" stroke-linejoin="miter" d="M 0.634784 1.73924 L 18.421371 1.740002 L 18.136264 7.914658 L 13.105348 8.138828 L 12.409003 26.458985 L 5.795877 27.092941 L 5.949891 8.107239 L 0.665156 7.853064 Z M 0.634784 1.73924 " stroke="#ffffff" stroke-width="6.965178" stroke-opacity="1" stroke-miterlimit="4"/><path stroke-linecap="butt" transform="matrix(1.498342, -0.248305, 0.248305, 1.498342, 205.494893, 241.426741)" fill="none" stroke-linejoin="miter" d="M 0.820079 2.025373 L 7.688747 1.81059 L 6.839074 26.366353 L 0.633816 27.029993 Z M 0.820079 2.025373 " stroke="#ffffff" stroke-width="6.965178" stroke-opacity="1" stroke-miterlimit="4"/><path stroke-linecap="butt" transform="matrix(1.48543, -0.316517, 0.316517, 1.48543, 219.824198, 239.199476)" fill="none" stroke-linejoin="miter" d="M 16.998443 1.678523 L 18.481927 3.293703 L 18.259391 24.688947 L 17.091125 26.938236 L 2.881259 27.031844 L 0.788711 25.794418 L 0.633892 3.356293 L 1.645023 1.770394 Z M 7.279702 6.994497 L 7.470973 21.62226 L 11.744083 21.906909 L 11.806383 7.372624 Z M 7.279702 6.994497 " stroke="#ffffff" stroke-width="6.965178" stroke-opacity="1" stroke-miterlimit="4"/><path stroke-linecap="butt" transform="matrix(1.462457, -0.409759, 0.409759, 1.462457, 249.539638, 232.856937)" fill="none" stroke-linejoin="miter" d="M 12.726477 2.127762 L 19.810829 1.810276 L 18.892733 26.746082 L 13.228843 26.970093 L 7.401671 14.621279 L 6.961174 26.365192 L 0.634841 26.999233 L 0.819075 1.841784 L 7.657384 1.839988 L 12.657937 12.410675 Z M 12.726477 2.127762 " stroke="#ffffff" stroke-width="6.965178" stroke-opacity="1" stroke-miterlimit="4"/><g fill="#0cc0df" fill-opacity="1"><g transform="translate(111.038526, 287.94472)"><g><path d="M 19.609375 -37.640625 L 30.375 -38.03125 L 28.6875 -0.171875 L 20.09375 0.109375 L 11.390625 -18.71875 L 10.578125 -0.890625 L 0.96875 0 L 1.53125 -38.1875 L 11.90625 -38.109375 L 19.390625 -22.015625 Z M 19.609375 -37.640625 "/></g></g></g><g fill="#0cc0df" fill-opacity="1"><g transform="translate(146.041974, 288.063121)"><g><path d="M 26.25 -35.625 L 28.890625 -1.734375 L 18.90625 -0.984375 L 17.9375 -12.90625 L 10.34375 -12 L 10.203125 -0.71875 L 0.96875 -0.015625 L 0.46875 -35.3125 L 2.203125 -37.671875 L 23.0625 -39.765625 Z M 17.484375 -20.1875 L 16.703125 -29.71875 L 10.40625 -28.84375 L 10.40625 -20.28125 Z M 17.484375 -20.1875 "/></g></g></g><g fill="#0cc0df" fill-opacity="1"><g transform="translate(179.804993, 286.014704)"><g><path d="M -3.5625 -38.203125 L 23.234375 -41.40625 L 23.9375 -32.046875 L 16.359375 -30.796875 L 18.625 -3.046875 L 8.75 -0.90625 L 5.578125 -29.546875 L -2.421875 -29 Z M -3.5625 -38.203125 "/></g></g></g><g fill="#0cc0df" fill-opacity="1"><g transform="translate(212.19913, 281.881972)"><g><path d="M -4.96875 -37.609375 L 5.265625 -39.640625 L 10.078125 -2.65625 L 0.953125 -0.109375 Z M -4.96875 -37.609375 "/></g></g></g><g fill="#0cc0df" fill-opacity="1"><g transform="translate(228.37017, 279.306073)"><g><path d="M 17.234375 -42.984375 L 19.953125 -41.046875 L 26.390625 -9.21875 L 25.375 -5.5 L 4.296875 -0.859375 L 0.796875 -2.03125 L -6.53125 -35.328125 L -5.546875 -37.984375 Z M 4.46875 -32 L 9.390625 -10.359375 L 15.828125 -11.28125 L 11.328125 -32.875 Z M 4.46875 -32 "/></g></g></g><g fill="#0cc0df" fill-opacity="1"><g transform="translate(260.603136, 272.343285)"><g><path d="M 8.421875 -41.59375 L 18.671875 -44.953125 L 27.515625 -8.109375 L 19.328125 -5.46875 L 5.75 -21.125 L 9.921875 -3.796875 L 0.9375 -0.265625 L -9.109375 -37.125 L 0.875 -39.921875 L 12.515625 -26.515625 Z M 8.421875 -41.59375 "/></g></g></g></svg>