<svg xmlns="http://www.w3.org/2000/svg" xmlns:xlink="http://www.w3.org/1999/xlink" width="500" zoomAndPan="magnify" viewBox="0 0 375 374.999991" height="500" preserveAspectRatio="xMidYMid meet" version="1.0"><defs><g/><clipPath id="26a69d3fa8"><path d="M 88 82 L 289 82 L 289 282 L 88 282 Z M 88 82 " clip-rule="nonzero"/></clipPath><clipPath id="aeea5ab41d"><path d="M 75.269531 97.535156 L 272.730469 69.082031 L 301.183594 266.542969 L 103.722656 294.996094 Z M 75.269531 97.535156 " clip-rule="nonzero"/></clipPath><clipPath id="2a45642098"><path d="M 75.269531 97.535156 L 272.730469 69.082031 L 301.183594 266.542969 L 103.722656 294.996094 Z M 75.269531 97.535156 " clip-rule="nonzero"/></clipPath><clipPath id="f24904d840"><path d="M 189 37 L 356 37 L 356 218 L 189 218 Z M 189 37 " clip-rule="nonzero"/></clipPath><clipPath id="44f676e8e1"><path d="M 130.351562 75.933594 L 314.867188 0.078125 L 376.183594 149.214844 L 191.667969 225.074219 Z M 130.351562 75.933594 " clip-rule="nonzero"/></clipPath><clipPath id="d752310e37"><path d="M 130.351562 75.933594 L 314.867188 0.078125 L 376.183594 149.214844 L 191.667969 225.074219 Z M 130.351562 75.933594 " clip-rule="nonzero"/></clipPath><clipPath id="0c33210804"><path d="M 25 146 L 181 146 L 181 330 L 25 330 Z M 25 146 " clip-rule="nonzero"/></clipPath><clipPath id="9a208b277d"><path d="M 0 232.136719 L 176.785156 139.6875 L 251.511719 282.578125 L 74.726562 375.03125 Z M 0 232.136719 " clip-rule="nonzero"/></clipPath><clipPath id="4643476c8b"><path d="M 251.671875 282.457031 L 74.886719 374.90625 L 0.160156 232.015625 L 176.945312 139.566406 Z M 251.671875 282.457031 " clip-rule="nonzero"/></clipPath></defs><g clip-path="url(#26a69d3fa8)"><g clip-path="url(#aeea5ab41d)"><g clip-path="url(#2a45642098)"><path fill="#000000" d="M 286.996094 167.847656 C 286.996094 167.839844 286.996094 167.832031 286.992188 167.824219 C 286.992188 167.816406 286.992188 167.8125 286.988281 167.804688 C 286.988281 167.800781 286.988281 167.800781 286.988281 167.796875 C 279.128906 113.363281 228.457031 75.460938 174.019531 83.304688 C 174.019531 83.304688 174.015625 83.304688 174.015625 83.304688 C 174.011719 83.308594 174.003906 83.308594 174 83.308594 C 173.992188 83.308594 173.988281 83.3125 173.980469 83.3125 C 119.5625 91.171875 81.667969 141.828125 89.496094 196.253906 C 89.496094 196.253906 89.496094 196.257812 89.496094 196.257812 C 89.496094 196.265625 89.496094 196.273438 89.5 196.28125 C 89.5 196.289062 89.5 196.296875 89.503906 196.304688 C 89.503906 196.304688 89.503906 196.308594 89.503906 196.308594 C 97.359375 250.742188 148.03125 288.644531 202.46875 280.800781 C 202.472656 280.800781 202.472656 280.800781 202.472656 280.800781 C 202.472656 280.800781 202.472656 280.800781 202.476562 280.800781 C 256.914062 272.957031 294.824219 222.292969 286.996094 167.855469 C 286.996094 167.851562 286.996094 167.851562 286.996094 167.847656 Z M 247.734375 222.796875 C 250.554688 214.144531 252.28125 205.089844 252.851562 195.816406 C 258.601562 192.351562 264.171875 188.5 269.527344 184.269531 C 269.582031 190.140625 269.160156 196.09375 268.195312 202.023438 C 262.34375 209.894531 255.457031 216.867188 247.734375 222.796875 Z M 229.96875 253.117188 C 224.554688 255.714844 218.964844 257.796875 213.316406 259.402344 C 215.863281 253.074219 217.984375 246.644531 219.683594 240.148438 C 228.421875 236.984375 236.617188 232.769531 244.125 227.625 C 240.613281 236.707031 235.867188 245.28125 229.96875 253.117188 Z M 147.503906 241.542969 C 156.15625 244.363281 165.207031 246.089844 174.484375 246.660156 C 177.949219 252.414062 181.796875 257.980469 186.027344 263.335938 C 180.15625 263.390625 174.207031 262.96875 168.277344 262.003906 C 160.40625 256.152344 153.433594 249.265625 147.503906 241.542969 Z M 117.179688 223.777344 C 114.582031 218.363281 112.5 212.773438 110.894531 207.125 C 117.226562 209.671875 123.65625 211.792969 130.148438 213.492188 C 133.316406 222.230469 137.527344 230.425781 142.675781 237.933594 C 133.59375 234.421875 125.019531 229.675781 117.179688 223.777344 Z M 128.753906 141.3125 C 125.9375 149.964844 124.207031 159.015625 123.636719 168.292969 C 117.886719 171.757812 112.316406 175.609375 106.964844 179.839844 C 106.910156 173.96875 107.328125 168.019531 108.292969 162.089844 C 114.148438 154.21875 121.03125 147.246094 128.753906 141.3125 Z M 146.519531 110.992188 C 151.9375 108.394531 157.523438 106.308594 163.171875 104.703125 C 160.625 111.035156 158.503906 117.464844 156.804688 123.960938 C 148.066406 127.125 139.871094 131.339844 132.363281 136.484375 C 135.875 127.402344 140.621094 118.828125 146.519531 110.992188 Z M 228.988281 122.5625 C 220.332031 119.746094 211.28125 118.015625 202.003906 117.445312 C 198.539062 111.695312 194.691406 106.125 190.460938 100.773438 C 196.332031 100.71875 202.28125 101.140625 208.210938 102.101562 C 216.082031 107.957031 223.054688 114.839844 228.988281 122.5625 Z M 259.308594 140.328125 C 261.90625 145.742188 263.988281 151.332031 265.59375 156.980469 C 259.261719 154.433594 252.835938 152.3125 246.339844 150.613281 C 243.171875 141.875 238.960938 133.679688 233.8125 126.171875 C 242.894531 129.683594 251.46875 134.429688 259.308594 140.328125 Z M 279.363281 168.027344 C 279.207031 167.019531 279.050781 166.011719 278.863281 165.003906 C 280.378906 165.785156 281.875 166.613281 283.371094 167.449219 Z M 277.605469 168.28125 L 270.113281 169.363281 C 269.632812 166.234375 269.003906 163.101562 268.230469 159.980469 C 271.132812 161.222656 274.003906 162.574219 276.855469 164.003906 C 277.136719 165.429688 277.386719 166.855469 277.605469 168.28125 Z M 268.355469 169.613281 L 251.769531 172.003906 C 250.75 165.316406 249.164062 158.839844 247.046875 152.628906 C 253.511719 154.371094 259.90625 156.535156 266.195312 159.128906 C 267.109375 162.617188 267.820312 166.121094 268.355469 169.613281 Z M 250.011719 172.257812 L 223.144531 176.128906 C 221.6875 166.402344 219.316406 156.816406 216.078125 147.484375 C 225.765625 148.105469 235.4375 149.660156 244.980469 152.097656 C 247.253906 158.542969 248.949219 165.28125 250.011719 172.257812 Z M 221.386719 176.382812 L 188.996094 181.050781 L 184.328125 148.660156 C 194.191406 147.292969 204.183594 146.875 214.171875 147.394531 C 217.496094 156.832031 219.910156 166.535156 221.386719 176.382812 Z M 184.078125 146.898438 L 180.207031 120.035156 C 187.199219 119.082031 194.140625 118.808594 200.964844 119.167969 C 205.996094 127.636719 210.21875 136.472656 213.550781 145.589844 C 203.683594 145.121094 193.820312 145.550781 184.078125 146.898438 Z M 179.953125 118.277344 L 177.5625 101.691406 C 181.066406 101.214844 184.628906 100.910156 188.230469 100.800781 C 192.496094 106.105469 196.375 111.628906 199.875 117.335938 C 193.316406 117.058594 186.65625 117.363281 179.953125 118.277344 Z M 177.308594 99.933594 L 176.230469 92.4375 C 177.660156 92.246094 179.097656 92.085938 180.546875 91.949219 C 182.71875 94.285156 184.828125 96.660156 186.839844 99.089844 C 183.625 99.230469 180.445312 99.507812 177.308594 99.933594 Z M 175.976562 90.683594 L 175.398438 86.675781 C 176.625 87.875 177.839844 89.078125 179.019531 90.308594 C 178 90.414062 176.988281 90.546875 175.976562 90.683594 Z M 174.21875 90.9375 C 173.210938 91.089844 172.203125 91.25 171.195312 91.433594 C 171.976562 89.921875 172.804688 88.421875 173.640625 86.925781 Z M 174.472656 92.691406 L 175.550781 100.1875 C 172.425781 100.664062 169.292969 101.296875 166.171875 102.070312 C 167.414062 99.167969 168.765625 96.292969 170.195312 93.441406 C 171.621094 93.164062 173.046875 92.910156 174.472656 92.691406 Z M 175.804688 101.941406 L 178.195312 118.53125 C 171.507812 119.546875 165.03125 121.136719 158.816406 123.25 C 160.5625 116.789062 162.726562 110.394531 165.320312 104.101562 C 168.804688 103.191406 172.308594 102.476562 175.804688 101.941406 Z M 178.449219 120.289062 L 182.320312 147.152344 C 172.59375 148.609375 163.007812 150.980469 153.671875 154.21875 C 154.296875 144.53125 155.851562 134.859375 158.289062 125.320312 C 164.734375 123.046875 171.472656 121.347656 178.449219 120.289062 Z M 182.574219 148.910156 L 187.242188 181.304688 L 154.847656 185.96875 C 153.484375 176.105469 153.066406 166.117188 153.585938 156.125 C 163.023438 152.804688 172.726562 150.386719 182.574219 148.910156 Z M 153.089844 186.222656 L 126.226562 190.09375 C 125.273438 183.101562 125 176.160156 125.359375 169.332031 C 133.828125 164.300781 142.664062 160.082031 151.785156 156.746094 C 151.3125 166.613281 151.742188 176.480469 153.089844 186.222656 Z M 124.46875 190.347656 L 107.882812 192.738281 C 107.40625 189.234375 107.101562 185.671875 106.992188 182.070312 C 112.292969 177.804688 117.820312 173.921875 123.527344 170.425781 C 123.25 176.984375 123.554688 183.644531 124.46875 190.347656 Z M 106.125 192.992188 L 98.628906 194.070312 C 98.4375 192.640625 98.277344 191.203125 98.140625 189.753906 C 100.476562 187.578125 102.847656 185.46875 105.28125 183.457031 C 105.421875 186.671875 105.699219 189.855469 106.125 192.992188 Z M 96.875 194.324219 L 92.863281 194.902344 C 94.0625 193.675781 95.269531 192.460938 96.496094 191.28125 C 96.605469 192.300781 96.738281 193.3125 96.875 194.324219 Z M 97.125 196.082031 C 97.28125 197.085938 97.441406 198.09375 97.625 199.101562 C 96.113281 198.320312 94.617188 197.492188 93.121094 196.65625 Z M 98.882812 195.828125 L 106.378906 194.746094 C 106.855469 197.875 107.484375 201.003906 108.261719 204.128906 C 105.359375 202.882812 102.484375 201.53125 99.632812 200.105469 C 99.351562 198.679688 99.101562 197.253906 98.882812 195.828125 Z M 108.132812 194.496094 L 124.722656 192.105469 C 125.738281 198.792969 127.324219 205.265625 129.441406 211.480469 C 122.980469 209.734375 116.582031 207.570312 110.292969 204.976562 C 109.378906 201.492188 108.667969 197.988281 108.132812 194.496094 Z M 126.476562 191.851562 L 153.34375 187.980469 C 154.800781 197.707031 157.171875 207.292969 160.410156 216.625 C 150.722656 216 141.050781 214.445312 131.507812 212.011719 C 129.238281 205.566406 127.539062 198.828125 126.476562 191.851562 Z M 155.101562 187.726562 L 187.492188 183.058594 L 192.160156 215.449219 C 182.296875 216.8125 172.304688 217.234375 162.316406 216.710938 C 158.996094 207.277344 156.578125 197.574219 155.101562 187.726562 Z M 192.414062 217.207031 L 196.285156 244.074219 C 189.292969 245.023438 182.347656 245.300781 175.523438 244.9375 C 170.492188 236.472656 166.269531 227.632812 162.9375 218.515625 C 172.804688 218.988281 182.671875 218.554688 192.414062 217.207031 Z M 196.539062 245.828125 L 198.929688 262.417969 C 195.421875 262.890625 191.859375 263.199219 188.257812 263.308594 C 183.996094 258.003906 180.113281 252.480469 176.617188 246.773438 C 183.171875 247.046875 189.832031 246.742188 196.539062 245.828125 Z M 199.179688 264.175781 L 200.261719 271.667969 C 198.832031 271.863281 197.390625 272.023438 195.945312 272.15625 C 193.769531 269.824219 191.660156 267.449219 189.648438 265.015625 C 192.863281 264.878906 196.046875 264.597656 199.179688 264.175781 Z M 200.515625 273.425781 L 201.09375 277.433594 C 199.867188 276.234375 198.648438 275.03125 197.46875 273.800781 C 198.492188 273.691406 199.503906 273.5625 200.515625 273.425781 Z M 202.269531 273.171875 C 203.277344 273.019531 204.285156 272.859375 205.296875 272.671875 C 204.511719 274.183594 203.683594 275.683594 202.847656 277.179688 Z M 202.019531 271.414062 L 200.9375 263.921875 C 204.066406 263.441406 207.195312 262.8125 210.320312 262.039062 C 209.074219 264.941406 207.722656 267.8125 206.296875 270.664062 C 204.871094 270.945312 203.445312 271.199219 202.019531 271.414062 Z M 200.683594 262.164062 L 198.292969 245.578125 C 204.984375 244.558594 211.460938 242.972656 217.671875 240.859375 C 215.925781 247.320312 213.761719 253.714844 211.167969 260.007812 C 207.683594 260.917969 204.179688 261.628906 200.683594 262.164062 Z M 198.042969 243.820312 L 194.171875 216.953125 C 203.898438 215.496094 213.484375 213.125 222.816406 209.886719 C 222.191406 219.578125 220.636719 229.246094 218.203125 238.789062 C 211.757812 241.0625 205.019531 242.757812 198.042969 243.820312 Z M 193.917969 215.195312 L 189.25 182.804688 L 221.640625 178.140625 C 223.003906 188 223.425781 197.992188 222.902344 207.980469 C 213.46875 211.300781 203.765625 213.71875 193.917969 215.195312 Z M 223.398438 177.886719 L 250.265625 174.015625 C 251.214844 181.007812 251.488281 187.949219 251.128906 194.777344 C 242.664062 199.808594 233.824219 204.027344 224.707031 207.359375 C 225.175781 197.492188 224.746094 187.628906 223.398438 177.886719 Z M 252.019531 173.761719 L 268.609375 171.371094 C 269.082031 174.875 269.386719 178.4375 269.5 182.039062 C 264.195312 186.304688 258.671875 190.1875 252.964844 193.683594 C 253.238281 187.125 252.933594 180.464844 252.019531 173.761719 Z M 270.363281 171.117188 L 277.859375 170.039062 C 278.054688 171.46875 278.214844 172.90625 278.347656 174.355469 C 276.015625 176.53125 273.640625 178.636719 271.207031 180.652344 C 271.070312 177.4375 270.789062 174.253906 270.363281 171.117188 Z M 279.617188 169.785156 L 283.625 169.207031 C 282.425781 170.433594 281.222656 171.648438 279.992188 172.828125 C 279.882812 171.808594 279.753906 170.796875 279.617188 169.785156 Z M 278.417969 162.800781 C 278.042969 160.960938 277.621094 159.125 277.144531 157.292969 C 279.3125 159.882812 281.386719 162.582031 283.339844 165.40625 C 281.710938 164.507812 280.070312 163.636719 278.417969 162.800781 Z M 276.398438 161.792969 C 273.511719 160.378906 270.605469 159.03125 267.671875 157.804688 C 266.289062 152.703125 264.515625 147.640625 262.34375 142.699219 C 266.621094 146.167969 270.652344 150 274.414062 154.160156 C 275.175781 156.691406 275.839844 159.238281 276.398438 161.792969 Z M 244.257812 150.078125 C 234.746094 147.726562 225.109375 146.25 215.460938 145.671875 C 212.183594 136.578125 208.046875 127.753906 203.105469 119.292969 C 212.679688 119.988281 221.996094 121.957031 230.863281 125.085938 C 236.367188 132.710938 240.886719 141.089844 244.257812 150.078125 Z M 189.085938 99.011719 C 187.074219 96.542969 184.964844 94.136719 182.792969 91.765625 C 185.402344 91.582031 188.03125 91.5 190.675781 91.515625 C 195.726562 93.949219 200.542969 96.734375 205.078125 99.859375 C 199.722656 99.167969 194.367188 98.894531 189.085938 99.011719 Z M 181.257812 90.113281 C 179.988281 88.765625 178.691406 87.4375 177.367188 86.128906 C 180.628906 87.207031 183.800781 88.433594 186.898438 89.78125 C 185.007812 89.839844 183.128906 89.953125 181.257812 90.113281 Z M 168.992188 91.878906 C 167.152344 92.257812 165.316406 92.675781 163.488281 93.15625 C 166.074219 90.988281 168.773438 88.914062 171.597656 86.960938 C 170.699219 88.589844 169.828125 90.230469 168.992188 91.878906 Z M 167.984375 93.898438 C 166.570312 96.785156 165.226562 99.691406 163.996094 102.628906 C 158.894531 104.007812 153.832031 105.78125 148.890625 107.957031 C 152.359375 103.675781 156.191406 99.644531 160.351562 95.882812 C 162.886719 95.125 165.433594 94.457031 167.984375 93.898438 Z M 156.269531 126.039062 C 153.917969 135.550781 152.441406 145.1875 151.863281 154.835938 C 142.773438 158.113281 133.945312 162.25 125.484375 167.195312 C 126.179688 157.621094 128.148438 148.304688 131.277344 139.433594 C 138.902344 133.929688 147.28125 129.410156 156.269531 126.039062 Z M 105.203125 181.214844 C 102.734375 183.222656 100.324219 185.335938 97.957031 187.507812 C 97.773438 184.898438 97.691406 182.269531 97.707031 179.625 C 100.140625 174.570312 102.925781 169.757812 106.050781 165.222656 C 105.359375 170.578125 105.085938 175.929688 105.203125 181.214844 Z M 96.300781 189.042969 C 94.957031 190.308594 93.628906 191.609375 92.320312 192.929688 C 93.398438 189.671875 94.625 186.496094 95.972656 183.402344 C 96.03125 185.292969 96.144531 187.171875 96.300781 189.042969 Z M 98.070312 201.304688 C 98.445312 203.144531 98.867188 204.980469 99.34375 206.808594 C 97.175781 204.222656 95.105469 201.523438 93.152344 198.699219 C 94.78125 199.597656 96.421875 200.46875 98.070312 201.304688 Z M 100.089844 202.3125 C 102.976562 203.726562 105.882812 205.074219 108.816406 206.300781 C 110.199219 211.402344 111.972656 216.464844 114.144531 221.40625 C 109.867188 217.9375 105.835938 214.105469 102.074219 209.945312 C 101.3125 207.410156 100.648438 204.867188 100.089844 202.3125 Z M 132.230469 214.027344 C 141.742188 216.382812 151.378906 217.855469 161.027344 218.433594 C 164.304688 227.527344 168.441406 236.355469 173.382812 244.816406 C 163.8125 244.121094 154.492188 242.148438 145.625 239.023438 C 140.121094 231.398438 135.601562 223.015625 132.230469 214.027344 Z M 187.40625 265.09375 C 189.414062 267.566406 191.523438 269.972656 193.695312 272.34375 C 191.089844 272.527344 188.457031 272.605469 185.8125 272.59375 C 180.761719 270.160156 175.945312 267.371094 171.410156 264.246094 C 176.765625 264.9375 182.121094 265.210938 187.40625 265.09375 Z M 195.230469 273.996094 C 196.5 275.34375 197.800781 276.667969 199.121094 277.980469 C 195.859375 276.902344 192.6875 275.675781 189.589844 274.324219 C 191.480469 274.269531 193.363281 274.152344 195.230469 273.996094 Z M 207.496094 272.230469 C 209.335938 271.851562 211.171875 271.433594 213.003906 270.953125 C 210.414062 273.121094 207.714844 275.195312 204.890625 277.148438 C 205.789062 275.519531 206.660156 273.878906 207.496094 272.230469 Z M 208.503906 270.210938 C 209.917969 267.324219 211.265625 264.417969 212.492188 261.480469 C 217.59375 260.101562 222.65625 258.328125 227.597656 256.152344 C 224.128906 260.429688 220.296875 264.464844 216.136719 268.222656 C 213.605469 268.984375 211.058594 269.648438 208.503906 270.210938 Z M 220.21875 238.070312 C 222.574219 228.554688 224.046875 218.917969 224.625 209.269531 C 233.71875 205.992188 242.546875 201.859375 251.007812 196.914062 C 250.3125 206.488281 248.339844 215.804688 245.214844 224.675781 C 237.585938 230.179688 229.207031 234.699219 220.21875 238.070312 Z M 271.285156 182.894531 C 273.757812 180.886719 276.164062 178.773438 278.535156 176.601562 C 278.71875 179.210938 278.796875 181.84375 278.785156 184.488281 C 276.351562 189.539062 273.5625 194.355469 270.4375 198.890625 C 271.128906 193.535156 271.402344 188.179688 271.285156 182.894531 Z M 280.1875 175.066406 C 281.535156 173.796875 282.859375 172.5 284.171875 171.175781 C 283.09375 174.4375 281.867188 177.613281 280.515625 180.710938 C 280.460938 178.816406 280.34375 176.9375 280.1875 175.066406 Z M 276.003906 153.273438 C 274.730469 149.078125 273.191406 144.925781 271.382812 140.859375 C 275.722656 146.957031 279.527344 153.816406 282.691406 161.460938 C 280.574219 158.601562 278.339844 155.875 276.003906 153.273438 Z M 273.140625 150.199219 C 269.25 146.183594 265.101562 142.5 260.714844 139.171875 C 256.753906 130.992188 251.667969 123.210938 245.472656 116.179688 C 252.898438 120.917969 259.824219 126.796875 265.960938 133.925781 C 268.839844 139.175781 271.230469 144.636719 273.140625 150.199219 Z M 257.5625 136.867188 C 249.644531 131.296875 241.050781 126.84375 231.980469 123.59375 C 226.300781 115.808594 219.601562 108.820312 212.023438 102.796875 C 221.613281 104.726562 231.074219 108.0625 239.964844 112.917969 C 247.132812 120.074219 253.003906 128.210938 257.5625 136.867188 Z M 208.921875 100.421875 C 204.492188 97.15625 199.785156 94.214844 194.835938 91.617188 C 200.710938 91.882812 206.621094 92.632812 212.472656 93.910156 C 221.042969 97.785156 228.640625 102.769531 235.277344 108.554688 C 226.785156 104.597656 217.886719 101.914062 208.921875 100.421875 Z M 191.078125 89.738281 C 187.921875 88.230469 184.675781 86.859375 181.339844 85.636719 C 189.5625 86.511719 197.214844 88.226562 204.289062 90.667969 C 199.878906 90.078125 195.460938 89.777344 191.078125 89.738281 Z M 159.464844 94.292969 C 155.269531 95.566406 151.117188 97.105469 147.054688 98.917969 C 153.148438 94.578125 160.007812 90.769531 167.652344 87.609375 C 164.792969 89.722656 162.070312 91.957031 159.464844 94.292969 Z M 156.390625 97.15625 C 152.375 101.046875 148.691406 105.199219 145.363281 109.582031 C 137.183594 113.542969 129.402344 118.632812 122.371094 124.824219 C 127.109375 117.402344 132.988281 110.472656 140.117188 104.335938 C 145.367188 101.457031 150.832031 99.070312 156.390625 97.15625 Z M 143.058594 112.734375 C 137.488281 120.652344 133.035156 129.25 129.785156 138.320312 C 122 144 115.011719 150.699219 108.988281 158.277344 C 110.917969 148.6875 114.25 139.222656 119.109375 130.335938 C 126.265625 123.164062 134.402344 117.292969 143.058594 112.734375 Z M 106.613281 161.378906 C 103.347656 165.808594 100.40625 170.515625 97.808594 175.464844 C 98.070312 169.589844 98.820312 163.679688 100.101562 157.828125 C 103.976562 149.257812 108.960938 141.660156 114.746094 135.023438 C 110.789062 143.511719 108.105469 152.414062 106.613281 161.378906 Z M 95.929688 179.222656 C 94.421875 182.378906 93.050781 185.625 91.828125 188.960938 C 92.703125 180.738281 94.417969 173.085938 96.859375 166.015625 C 96.269531 170.425781 95.96875 174.839844 95.929688 179.222656 Z M 100.484375 210.832031 C 101.757812 215.023438 103.296875 219.175781 105.105469 223.242188 C 100.765625 217.144531 96.960938 210.289062 93.800781 202.648438 C 95.914062 205.503906 98.148438 208.230469 100.484375 210.832031 Z M 103.347656 213.902344 C 107.238281 217.921875 111.386719 221.605469 115.769531 224.933594 C 119.734375 233.113281 124.820312 240.894531 131.011719 247.921875 C 123.589844 243.1875 116.660156 237.308594 110.527344 230.175781 C 107.648438 224.925781 105.257812 219.464844 103.347656 213.902344 Z M 118.925781 227.238281 C 126.84375 232.808594 135.4375 237.261719 144.507812 240.515625 C 150.1875 248.296875 156.886719 255.285156 164.464844 261.308594 C 154.875 259.378906 145.410156 256.042969 136.519531 251.1875 C 129.351562 244.03125 123.484375 235.894531 118.925781 227.238281 Z M 167.566406 263.683594 C 171.996094 266.949219 176.703125 269.890625 181.65625 272.488281 C 175.78125 272.226562 169.867188 271.476562 164.015625 270.195312 C 155.441406 266.320312 147.847656 261.335938 141.207031 255.550781 C 149.699219 259.507812 158.601562 262.191406 167.566406 263.683594 Z M 185.410156 274.371094 C 188.570312 275.875 191.8125 277.25 195.152344 278.46875 C 186.925781 277.597656 179.273438 275.878906 172.199219 273.4375 C 176.609375 274.027344 181.027344 274.332031 185.410156 274.371094 Z M 217.023438 269.816406 C 221.21875 268.542969 225.367188 267.003906 229.433594 265.191406 C 223.339844 269.53125 216.480469 273.339844 208.839844 276.5 C 211.695312 274.382812 214.421875 272.152344 217.023438 269.816406 Z M 220.097656 266.949219 C 224.113281 263.0625 227.796875 258.910156 231.125 254.527344 C 239.304688 250.566406 247.085938 245.480469 254.113281 239.285156 C 249.378906 246.710938 243.5 253.636719 236.371094 259.773438 C 231.121094 262.652344 225.65625 265.039062 220.097656 266.949219 Z M 233.429688 251.375 C 239 243.457031 243.453125 234.859375 246.703125 225.789062 C 254.488281 220.109375 261.476562 213.410156 267.5 205.832031 C 265.570312 215.425781 262.234375 224.886719 257.378906 233.777344 C 250.222656 240.945312 242.085938 246.816406 233.429688 251.375 Z M 269.875 202.730469 C 273.140625 198.304688 276.082031 193.597656 278.679688 188.644531 C 278.417969 194.519531 277.667969 200.433594 276.386719 206.285156 C 272.511719 214.859375 267.527344 222.453125 261.742188 229.089844 C 265.699219 220.601562 268.382812 211.699219 269.875 202.730469 Z M 280.558594 184.890625 C 282.066406 181.730469 283.441406 178.484375 284.664062 175.148438 C 283.789062 183.371094 282.070312 191.027344 279.628906 198.101562 C 280.21875 193.691406 280.523438 189.273438 280.558594 184.890625 Z M 267.421875 132.878906 C 263.972656 126.613281 259.839844 120.652344 255.042969 115.167969 C 265.695312 124.5625 274.605469 136.925781 280.566406 152.585938 C 276.785156 145.199219 272.359375 138.640625 267.421875 132.878906 Z M 261.539062 126.613281 C 255.253906 120.5 248.339844 115.484375 241.042969 111.472656 C 235.136719 105.605469 228.375 100.390625 220.738281 96.089844 C 228.953125 98.628906 236.921875 102.265625 244.347656 107.0625 C 251.046875 112.828125 256.78125 119.449219 261.539062 126.613281 Z M 213.0625 92.214844 C 206.144531 89.105469 198.601562 86.710938 190.449219 85.167969 C 207.15625 86.46875 221.53125 91.523438 233.546875 99.085938 C 226.929688 96.035156 220.046875 93.753906 213.0625 92.214844 Z M 139.070312 102.878906 C 132.808594 106.328125 126.847656 110.457031 121.359375 115.253906 C 130.753906 104.605469 143.117188 95.695312 158.773438 89.730469 C 151.390625 93.511719 144.832031 97.941406 139.070312 102.878906 Z M 132.804688 108.761719 C 126.691406 115.042969 121.675781 121.957031 117.664062 129.253906 C 111.796875 135.160156 106.582031 141.925781 102.28125 149.5625 C 104.820312 141.347656 108.453125 133.378906 113.253906 125.953125 C 119.023438 119.253906 125.640625 113.515625 132.804688 108.761719 Z M 98.40625 157.238281 C 95.296875 164.15625 92.902344 171.695312 91.359375 179.847656 C 92.660156 163.144531 97.714844 148.769531 105.277344 136.753906 C 102.226562 143.371094 99.945312 150.253906 98.40625 157.238281 Z M 109.066406 231.222656 C 112.515625 237.488281 116.644531 243.449219 121.441406 248.933594 C 110.792969 239.539062 101.886719 227.179688 95.921875 211.523438 C 99.703125 218.90625 104.128906 225.464844 109.066406 231.222656 Z M 114.949219 237.488281 C 121.230469 243.601562 128.144531 248.621094 135.441406 252.628906 C 141.347656 258.5 148.113281 263.714844 155.75 268.015625 C 147.535156 265.476562 139.5625 261.839844 132.140625 257.039062 C 125.4375 251.273438 119.703125 244.652344 114.949219 237.488281 Z M 163.425781 271.890625 C 170.34375 275.003906 177.886719 277.398438 186.039062 278.941406 C 169.332031 277.640625 154.953125 272.582031 142.933594 265.015625 C 149.554688 268.070312 156.4375 270.351562 163.425781 271.890625 Z M 237.414062 261.234375 C 243.679688 257.785156 249.640625 253.652344 255.128906 248.855469 C 245.734375 259.503906 233.371094 268.414062 217.710938 274.375 C 225.097656 270.59375 231.65625 266.167969 237.414062 261.234375 Z M 243.679688 255.351562 C 249.796875 249.070312 254.8125 242.15625 258.820312 234.855469 C 264.691406 228.949219 269.90625 222.1875 274.207031 214.550781 C 271.667969 222.765625 268.03125 230.734375 263.230469 238.160156 C 257.464844 244.859375 250.84375 250.59375 243.679688 255.351562 Z M 278.082031 206.875 C 281.195312 199.957031 283.589844 192.414062 285.132812 184.257812 C 283.832031 200.96875 278.773438 215.347656 271.207031 227.367188 C 274.261719 220.746094 276.542969 213.863281 278.082031 206.875 Z M 276.433594 139.339844 C 268.496094 124.714844 257.710938 113.582031 245.421875 105.621094 C 234.308594 96.078125 220.582031 88.875 204.300781 85.390625 C 235.558594 90.601562 262.605469 110.832031 276.433594 139.339844 Z M 145.519531 93.871094 C 130.898438 101.808594 119.773438 112.59375 111.8125 124.878906 C 102.273438 135.984375 95.074219 149.707031 91.585938 165.976562 C 96.804688 134.730469 117.023438 107.703125 145.519531 93.871094 Z M 100.054688 224.765625 C 107.996094 239.390625 118.777344 250.519531 131.0625 258.480469 C 142.167969 268.019531 155.886719 275.222656 172.152344 278.710938 C 140.910156 273.488281 113.882812 253.265625 100.054688 224.765625 Z M 230.945312 270.25 C 245.574219 262.3125 256.707031 251.527344 264.671875 239.238281 C 274.214844 228.125 281.421875 214.402344 284.90625 198.125 C 279.691406 229.378906 259.457031 256.421875 230.945312 270.25 Z M 230.945312 270.25 " fill-opacity="1" fill-rule="nonzero"/></g></g></g><g clip-path="url(#f24904d840)"><g clip-path="url(#44f676e8e1)"><g clip-path="url(#d752310e37)"><path fill="#000000" d="M 252.34375 199.855469 C 230.492188 208.839844 208.914062 214.699219 189.222656 217.496094 C 202.261719 214.316406 215.796875 209.925781 229.4375 204.316406 C 297.804688 176.210938 342.859375 128.183594 330.054688 97.042969 C 321.347656 75.863281 288.105469 67.960938 246.199219 73.917969 C 298.507812 61.121094 342.71875 67.65625 352.96875 92.59375 C 365.765625 123.71875 320.714844 171.746094 252.34375 199.855469 Z M 205.617188 79.667969 L 205.429688 79.210938 C 232.726562 67.988281 232.882812 62.746094 222.664062 37.890625 L 223.121094 37.699219 C 233.339844 62.558594 237.152344 66.167969 264.449219 54.949219 L 264.636719 55.402344 C 237.339844 66.625 237.164062 71.859375 247.382812 96.71875 L 246.929688 96.90625 C 236.707031 72.046875 232.914062 68.445312 205.617188 79.667969 " fill-opacity="1" fill-rule="evenodd"/></g></g></g><g clip-path="url(#0c33210804)"><g clip-path="url(#9a208b277d)"><g clip-path="url(#4643476c8b)"><path fill="#000000" d="M 118.835938 170.238281 C 139.769531 159.289062 160.722656 151.476562 180.074219 146.882812 C 167.382812 151.246094 154.308594 156.859375 141.238281 163.695312 C 75.730469 197.949219 35.273438 249.902344 50.875 279.738281 C 61.484375 300.03125 95.3125 304.851562 136.496094 295.082031 C 85.582031 312.621094 40.957031 310.160156 28.464844 286.273438 C 12.867188 256.449219 53.328125 204.496094 118.835938 170.238281 Z M 176.378906 285.636719 L 176.609375 286.074219 C 150.457031 299.75 150.78125 304.984375 163.234375 328.800781 L 162.796875 329.03125 C 150.34375 305.214844 146.214844 301.96875 120.0625 315.644531 L 119.835938 315.207031 C 145.984375 301.53125 145.683594 296.300781 133.226562 272.484375 L 133.664062 272.257812 C 146.121094 296.074219 150.230469 299.3125 176.378906 285.636719 " fill-opacity="1" fill-rule="evenodd"/></g></g></g><path stroke-linecap="butt" transform="matrix(1.163362, 0.0607661, -0.0607661, 1.163362, 108.528461, 154.970483)" fill="none" stroke-linejoin="miter" d="M 1.854342 47.154915 C 1.189572 47.156061 0.677889 46.873877 0.322817 46.311537 C 0.0723752 45.888114 -0.0258315 45.550756 0.0248486 45.299637 C 0.0788772 45.048343 0.156597 44.607779 0.258008 43.977945 L 8.133871 11.231673 C 8.27419 10.703897 8.4945 10.229023 8.794626 9.803704 C 9.098275 9.381559 9.496833 9.169351 9.990475 9.170428 L 23.327276 9.168854 C 23.820918 9.169931 24.218074 9.380869 24.51892 9.805017 C 24.823115 10.22899 25.049391 10.704041 25.194402 11.230345 L 33.056227 43.977231 C 33.15978 44.60979 33.246491 45.04848 33.31671 45.299999 C 33.386929 45.551519 33.280347 45.889501 33.003661 46.313595 C 32.650257 46.876006 32.134298 47.154786 31.459483 47.156456 C 28.840412 47.155592 26.802746 47.164651 25.349659 47.180112 C 23.896747 47.198921 22.849738 47.146162 22.212158 47.025009 C 21.571229 46.904032 21.143611 46.624172 20.92578 46.182257 C 20.717645 45.733121 20.529879 45.031091 20.355957 44.079866 L 20.031628 42.434733 L 13.285948 42.43452 L 12.96225 44.079924 C 12.787044 45.032596 12.592022 45.734474 12.37701 46.182209 C 12.168345 46.622897 11.746497 46.903477 11.104942 47.027646 C 10.46656 47.148291 9.418277 47.199689 7.966789 47.181488 C 6.511953 47.163462 4.476761 47.155604 1.854342 47.154915 Z M 15.086771 32.169908 L 18.226272 32.170451 L 16.684347 23.349662 Z M 15.086771 32.169908 " stroke="#000000" stroke-width="8.104322" stroke-opacity="1" stroke-miterlimit="4"/><path stroke-linecap="butt" transform="matrix(1.162892, -0.0691833, 0.0691833, 1.162892, 145.649349, 157.061063)" fill="none" stroke-linejoin="miter" d="M 19.393954 47.32562 C 18.970808 47.32396 18.581809 47.200045 18.227353 46.947181 C 17.90637 46.696308 17.677791 46.360237 17.541817 45.935622 L 13.337969 35.517581 L 13.608674 45.026454 C 13.642287 45.703629 13.449559 46.232976 13.026545 46.624336 C 12.558026 47.046579 12.061687 47.258905 11.534179 47.261113 L 2.128427 47.322972 C 1.557206 47.325939 1.078466 47.129503 0.688462 46.740161 C 0.298856 46.344124 0.10211 45.811762 0.104919 45.143471 L 0.00112059 10.92168 C -0.000490139 10.384131 0.210529 9.886104 0.634178 9.4276 C 1.025512 9.004124 1.48818 8.793154 2.022382 8.791344 L 10.624921 8.79255 C 11.195942 8.79293 11.693969 9.00395 12.118801 9.428955 C 12.50817 9.885441 12.700213 10.383933 12.701824 10.921482 L 12.961015 21.753148 L 17.903203 10.387795 C 18.085054 9.928342 18.353659 9.591618 18.709016 9.377624 C 19.028313 9.205152 19.453488 9.116238 19.980796 9.117377 L 28.852745 9.050633 C 29.527929 9.050492 30.058754 9.387749 30.448568 10.062602 C 30.872689 10.668955 30.942164 11.307955 30.656794 11.982949 L 23.482519 28.344829 L 30.824895 44.559256 C 31.034518 45.270416 30.940936 45.940024 30.553992 46.572025 C 30.130466 47.141386 29.545666 47.429067 28.799991 47.428373 Z M 19.393954 47.32562 " stroke="#000000" stroke-width="8.104322" stroke-opacity="1" stroke-miterlimit="4"/><path stroke-linecap="butt" transform="matrix(1.153517, -0.162798, 0.162798, 1.153517, 181.067791, 154.685805)" fill="none" stroke-linejoin="miter" d="M 11.689076 47.001626 L 2.024708 46.998998 C 1.486011 47.000857 1.014763 46.788734 0.610497 46.36595 C 0.20338 45.939377 0.0000826502 45.460296 0.00107506 44.925387 L 0.102528 11.8141 C 0.105314 11.21849 0.297007 10.724041 0.687097 10.335479 C 1.077188 9.946917 1.558183 9.754049 2.127231 9.753087 L 12.326588 9.804128 C 12.861497 9.805121 13.350751 10.009626 13.7915 10.413854 C 14.23178 10.821403 14.434649 11.327514 14.400106 11.932188 L 13.763544 44.923931 C 13.764037 45.4963 13.563321 45.982703 13.153818 46.388843 C 12.747635 46.795452 12.261445 47.001132 11.689076 47.001626 Z M 11.689076 47.001626 " stroke="#000000" stroke-width="8.104322" stroke-opacity="1" stroke-miterlimit="4"/><path stroke-linecap="butt" transform="matrix(1.136551, -0.255647, 0.255647, 1.136551, 197.252072, 152.921342)" fill="none" stroke-linejoin="miter" d="M 2.023068 46.998468 C 1.452051 47.000631 0.971879 46.751711 0.584354 46.258986 C 0.195029 45.758982 0.000188563 45.295851 -0.000901939 44.872863 L 0.104003 11.554773 C 0.104561 10.070143 0.880809 9.323648 2.437817 9.323302 L 10.729353 9.377072 C 14.206985 9.410052 17.255999 9.652509 19.876395 10.104443 C 22.496463 10.542556 24.550124 11.451291 26.038114 12.827379 C 27.70612 14.350503 28.621009 16.39505 28.775502 18.96282 C 28.929258 21.533861 28.144642 24.395624 26.413637 27.55318 C 27.721494 28.263228 28.755803 29.272624 29.515091 30.587911 C 30.276587 31.893384 30.764276 33.31599 30.981431 34.856464 C 31.198586 36.396938 31.126304 37.910114 30.774401 39.398201 C 30.419226 40.885553 29.76168 42.143355 28.801763 43.171608 C 27.771107 44.269874 26.538182 45.106115 25.103723 45.677062 C 23.668201 46.237459 21.904712 46.620977 19.812193 46.817067 C 17.727688 47.008086 15.229921 47.095838 12.326171 47.078524 C 9.419149 47.060474 5.984781 47.033788 2.023068 46.998468 Z M 12.272365 38.333175 L 15.255445 38.333963 C 16.276358 38.333325 17.124692 38.122022 17.801184 37.696782 C 18.473668 37.274077 18.915106 36.747849 19.12296 36.114089 C 19.338829 35.475259 19.262239 34.853131 18.889918 34.24697 C 18.517597 33.640809 17.807434 33.161436 16.763435 32.806314 C 15.715429 32.453728 14.254754 32.331392 12.376668 32.445111 Z M 12.544795 24.516118 C 14.13599 24.516588 15.297059 24.18316 16.023996 23.518371 C 16.74987 22.843031 17.087508 22.090676 17.033641 21.26057 C 16.981981 20.420649 16.586263 19.719865 15.839946 19.156747 C 15.098371 18.587822 14.03173 18.409765 12.649099 18.628054 Z M 12.544795 24.516118 " stroke="#000000" stroke-width="8.104322" stroke-opacity="1" stroke-miterlimit="4"/><path stroke-linecap="butt" transform="matrix(1.100908, -0.380928, 0.380928, 1.100908, 231.054834, 145.628326)" fill="none" stroke-linejoin="miter" d="M 1.853879 47.155452 C 1.19004 47.156389 0.677896 46.872735 0.324761 46.314116 C 0.0740155 45.890275 -0.0249879 45.550873 0.0266542 45.299078 C 0.0771998 45.050452 0.155386 44.609142 0.260117 43.978317 L 8.134907 11.231654 C 8.271337 10.704051 8.493085 10.227258 8.795884 9.803347 C 9.098683 9.379436 9.497667 9.169765 9.990763 9.170068 L 23.325682 9.167894 C 23.818778 9.168197 24.217206 9.38057 24.520965 9.805014 C 24.821556 10.228361 25.047324 10.703878 25.1951 11.230471 L 33.057091 43.975752 C 33.16125 44.607891 33.246373 45.048937 33.315628 45.299985 C 33.384884 45.551034 33.282432 45.888146 33.004007 46.313394 C 32.649795 46.875637 32.134431 47.155034 31.459989 47.15585 C 28.841803 47.154719 26.802512 47.162289 25.351623 47.181851 C 23.897565 47.200315 22.851527 47.147068 22.212413 47.025276 C 21.569033 46.905557 21.141712 46.622867 20.925089 46.182447 C 20.71919 45.731545 20.527762 45.033728 20.357263 44.080585 L 20.029218 42.434251 L 13.284918 42.431814 L 12.959727 44.079205 C 12.786666 45.030563 12.5931 45.733548 12.376955 46.183894 C 12.168365 46.622661 11.744163 46.905215 11.106541 47.025218 C 10.464655 47.147294 9.417411 47.200075 7.965908 47.180394 C 6.513308 47.163881 4.47633 47.154511 1.853879 47.155452 Z M 15.08977 32.170412 L 18.229692 32.171112 L 16.684208 23.347741 Z M 15.08977 32.170412 " stroke="#000000" stroke-width="8.104322" stroke-opacity="1" stroke-miterlimit="4"/><g fill="#f652a0" fill-opacity="1"><g transform="translate(105.672455, 209.648503)"><g><path d="M 2.15625 0.296875 C 1.363281 0.253906 0.785156 -0.109375 0.421875 -0.796875 C 0.148438 -1.296875 0.0507812 -1.691406 0.125 -1.984375 C 0.207031 -2.273438 0.332031 -2.785156 0.5 -3.515625 L 11.625 -41.09375 C 11.820312 -41.71875 12.109375 -42.265625 12.484375 -42.734375 C 12.859375 -43.210938 13.335938 -43.4375 13.921875 -43.40625 L 29.4375 -42.59375 C 30.019531 -42.5625 30.46875 -42.289062 30.78125 -41.78125 C 31.101562 -41.269531 31.332031 -40.695312 31.46875 -40.0625 L 38.640625 -1.515625 C 38.722656 -0.773438 38.796875 -0.257812 38.859375 0.03125 C 38.929688 0.332031 38.789062 0.71875 38.4375 1.1875 C 37.988281 1.832031 37.375 2.132812 36.59375 2.09375 C 33.53125 1.9375 31.15625 1.820312 29.46875 1.75 C 27.78125 1.6875 26.570312 1.5625 25.84375 1.375 C 25.113281 1.195312 24.632812 0.84375 24.40625 0.3125 C 24.1875 -0.21875 24 -1.046875 23.84375 -2.171875 L 23.59375 -4.109375 L 15.75 -4.515625 L 15.265625 -2.625 C 15.003906 -1.519531 14.734375 -0.710938 14.453125 -0.203125 C 14.179688 0.296875 13.671875 0.597656 12.921875 0.703125 C 12.171875 0.804688 10.945312 0.804688 9.25 0.703125 C 7.5625 0.597656 5.195312 0.460938 2.15625 0.296875 Z M 18.453125 -16.3125 L 22.109375 -16.125 L 20.84375 -26.5 Z M 18.453125 -16.3125 "/></g></g></g><g fill="#f652a0" fill-opacity="1"><g transform="translate(148.900963, 211.716982)"><g><path d="M 22.5625 -0.96875 C 22.082031 -0.9375 21.628906 -1.054688 21.203125 -1.328125 C 20.804688 -1.597656 20.507812 -1.972656 20.3125 -2.453125 L 14.703125 -14.265625 L 15.671875 -3.234375 C 15.765625 -2.441406 15.578125 -1.8125 15.109375 -1.34375 C 14.597656 -0.8125 14.035156 -0.523438 13.421875 -0.484375 L 2.484375 0.234375 C 1.828125 0.265625 1.265625 0.0664062 0.796875 -0.359375 C 0.304688 -0.773438 0.0390625 -1.378906 0 -2.171875 L -2.5 -41.953125 C -2.53125 -42.578125 -2.3125 -43.171875 -1.84375 -43.734375 C -1.425781 -44.253906 -0.90625 -44.535156 -0.28125 -44.578125 L 9.71875 -45.171875 C 10.375 -45.210938 10.960938 -45 11.484375 -44.53125 C 11.972656 -44.019531 12.234375 -43.453125 12.265625 -42.828125 L 13.328125 -30.25 L 18.296875 -43.8125 C 18.472656 -44.351562 18.757812 -44.765625 19.15625 -45.046875 C 19.5 -45.273438 19.984375 -45.40625 20.609375 -45.4375 L 30.921875 -46.125 C 31.710938 -46.164062 32.351562 -45.8125 32.84375 -45.0625 C 33.382812 -44.382812 33.515625 -43.644531 33.234375 -42.84375 L 26.015625 -23.328125 L 35.671875 -4.96875 C 35.972656 -4.164062 35.914062 -3.378906 35.5 -2.609375 C 35.050781 -1.910156 34.390625 -1.539062 33.515625 -1.5 Z M 22.5625 -0.96875 "/></g></g></g><g fill="#f652a0" fill-opacity="1"><g transform="translate(188.719316, 208.901088)"><g><path d="M 13.484375 -1.90625 L 2.34375 -0.328125 C 1.71875 -0.242188 1.132812 -0.410156 0.59375 -0.828125 C 0.0625 -1.253906 -0.25 -1.773438 -0.34375 -2.390625 L -5.609375 -40.59375 C -5.703125 -41.289062 -5.554688 -41.894531 -5.171875 -42.40625 C -4.785156 -42.914062 -4.269531 -43.21875 -3.625 -43.3125 L 8.171875 -44.90625 C 8.785156 -45 9.378906 -44.847656 9.953125 -44.453125 C 10.523438 -44.054688 10.84375 -43.503906 10.90625 -42.796875 L 15.53125 -4.625 C 15.625 -3.96875 15.46875 -3.375 15.0625 -2.84375 C 14.664062 -2.3125 14.140625 -2 13.484375 -1.90625 Z M 13.484375 -1.90625 "/></g></g></g><g fill="#f652a0" fill-opacity="1"><g transform="translate(209.267477, 206.339245)"><g><path d="M 2.296875 -0.515625 C 1.648438 -0.367188 1.039062 -0.523438 0.46875 -0.984375 C -0.09375 -1.453125 -0.429688 -1.925781 -0.546875 -2.40625 L -8.9375 -40.328125 C -9.3125 -42.015625 -8.613281 -43.054688 -6.84375 -43.453125 L 2.5625 -45.515625 C 6.53125 -46.359375 10.0625 -46.863281 13.15625 -47.03125 C 16.25 -47.195312 18.816406 -46.6875 20.859375 -45.5 C 23.140625 -44.1875 24.695312 -42.09375 25.53125 -39.21875 C 26.363281 -36.34375 26.203125 -32.890625 25.046875 -28.859375 C 26.710938 -28.390625 28.144531 -27.507812 29.34375 -26.21875 C 30.539062 -24.925781 31.457031 -23.425781 32.09375 -21.71875 C 32.738281 -20.019531 33.046875 -18.28125 33.015625 -16.5 C 32.992188 -14.71875 32.570312 -13.117188 31.75 -11.703125 C 30.863281 -10.191406 29.675781 -8.929688 28.1875 -7.921875 C 26.707031 -6.921875 24.804688 -6.039062 22.484375 -5.28125 C 20.160156 -4.519531 17.34375 -3.773438 14.03125 -3.046875 C 10.726562 -2.328125 6.816406 -1.484375 2.296875 -0.515625 Z M 11.734375 -12.984375 L 15.109375 -13.734375 C 16.273438 -14.003906 17.1875 -14.46875 17.84375 -15.125 C 18.507812 -15.78125 18.878906 -16.492188 18.953125 -17.265625 C 19.035156 -18.046875 18.789062 -18.726562 18.21875 -19.3125 C 17.644531 -19.90625 16.710938 -20.269531 15.421875 -20.40625 C 14.140625 -20.539062 12.445312 -20.316406 10.34375 -19.734375 Z M 8.5 -28.75 C 10.3125 -29.15625 11.546875 -29.832031 12.203125 -30.78125 C 12.859375 -31.726562 13.046875 -32.671875 12.765625 -33.609375 C 12.492188 -34.546875 11.863281 -35.238281 10.875 -35.6875 C 9.882812 -36.144531 8.632812 -36.078125 7.125 -35.484375 Z M 8.5 -28.75 "/></g></g></g><g fill="#f652a0" fill-opacity="1"><g transform="translate(248.958428, 197.370993)"><g><path d="M 2.109375 -0.53125 C 1.367188 -0.28125 0.695312 -0.398438 0.09375 -0.890625 C -0.34375 -1.265625 -0.578125 -1.597656 -0.609375 -1.890625 C -0.648438 -2.179688 -0.734375 -2.703125 -0.859375 -3.453125 L -4.671875 -42.453125 C -4.710938 -43.097656 -4.648438 -43.710938 -4.484375 -44.296875 C -4.316406 -44.878906 -3.957031 -45.269531 -3.40625 -45.46875 L 11.265625 -50.546875 C 11.816406 -50.734375 12.335938 -50.648438 12.828125 -50.296875 C 13.328125 -49.941406 13.753906 -49.492188 14.109375 -48.953125 L 35.234375 -15.9375 C 35.585938 -15.269531 35.851562 -14.8125 36.03125 -14.5625 C 36.207031 -14.320312 36.21875 -13.910156 36.0625 -13.328125 C 35.894531 -12.578125 35.441406 -12.070312 34.703125 -11.8125 C 31.804688 -10.8125 29.5625 -10.023438 27.96875 -9.453125 C 26.375 -8.878906 25.203125 -8.535156 24.453125 -8.421875 C 23.710938 -8.316406 23.140625 -8.46875 22.734375 -8.875 C 22.328125 -9.289062 21.847656 -9.988281 21.296875 -10.96875 L 20.3125 -12.671875 L 12.890625 -10.09375 L 13.171875 -8.15625 C 13.335938 -7.039062 13.382812 -6.195312 13.3125 -5.625 C 13.25 -5.050781 12.890625 -4.578125 12.234375 -4.203125 C 11.578125 -3.828125 10.445312 -3.367188 8.84375 -2.828125 C 7.238281 -2.296875 4.992188 -1.53125 2.109375 -0.53125 Z M 10.96875 -22.0625 L 14.421875 -23.25 L 9.375 -32.390625 Z M 10.96875 -22.0625 "/></g></g></g><path stroke-linecap="butt" transform="matrix(0.915122, 0.00687021, -0.00687021, 0.915122, 142.362314, 217.871645)" fill="none" stroke-linejoin="miter" d="M 12.72453 2.127788 L 19.81222 1.809927 L 18.893863 26.745205 L 13.226882 26.967029 L 7.401539 14.623405 L 6.960389 26.365253 L 0.634895 27.001803 L 0.817371 1.841547 L 7.655601 1.841432 L 12.656602 12.411256 Z M 12.72453 2.127788 " stroke="#000000" stroke-width="6.965178" stroke-opacity="1" stroke-miterlimit="4"/><path stroke-linecap="butt" transform="matrix(0.913684, -0.0517288, 0.0517288, 0.913684, 161.871659, 217.981802)" fill="none" stroke-linejoin="miter" d="M 18.573789 4.560108 L 19.055408 26.938506 L 12.473058 27.061774 L 12.278002 19.179952 L 7.249371 19.498066 L 6.74006 26.908207 L 0.632197 27.032687 L 1.61377 3.805118 L 2.852712 2.310511 L 16.644517 1.71043 Z M 12.246619 14.372767 L 12.094402 8.075221 L 7.910535 8.424061 L 7.595832 14.058156 Z M 12.246619 14.372767 " stroke="#000000" stroke-width="6.965178" stroke-opacity="1" stroke-miterlimit="4"/><path stroke-linecap="butt" transform="matrix(0.908718, -0.108286, 0.108286, 0.908718, 180.688689, 216.881544)" fill="none" stroke-linejoin="miter" d="M 0.63382 1.740497 L 18.421531 1.740921 L 18.137247 7.914277 L 13.106716 8.140158 L 12.411015 26.459723 L 5.797152 27.094439 L 5.948988 8.108255 L 0.666321 7.852734 Z M 0.63382 1.740497 " stroke="#000000" stroke-width="6.965178" stroke-opacity="1" stroke-miterlimit="4"/><path stroke-linecap="butt" transform="matrix(0.902834, -0.149618, 0.149618, 0.902834, 199.092003, 214.550273)" fill="none" stroke-linejoin="miter" d="M 0.81696 2.026697 L 7.688777 1.811251 L 6.838452 26.366874 L 0.632286 27.030111 Z M 0.81696 2.026697 " stroke="#000000" stroke-width="6.965178" stroke-opacity="1" stroke-miterlimit="4"/><path stroke-linecap="butt" transform="matrix(0.895053, -0.190719, 0.190719, 0.895053, 207.726216, 213.208229)" fill="none" stroke-linejoin="miter" d="M 16.999343 1.678808 L 18.483462 3.295597 L 18.258574 24.689309 L 17.094318 26.937587 L 2.882107 27.029678 L 0.78877 25.793694 L 0.634139 3.354612 L 1.647716 1.77251 Z M 7.277484 6.99596 L 7.473203 21.623036 L 11.745903 21.909379 L 11.806075 7.371743 Z M 7.277484 6.99596 " stroke="#000000" stroke-width="6.965178" stroke-opacity="1" stroke-miterlimit="4"/><path stroke-linecap="butt" transform="matrix(0.881211, -0.246903, 0.246903, 0.881211, 225.631382, 209.386496)" fill="none" stroke-linejoin="miter" d="M 12.726727 2.12543 L 19.810234 1.809493 L 18.892463 26.744051 L 13.23033 26.970626 L 7.404138 14.619659 L 6.962968 26.367136 L 0.632752 27.000521 L 0.820564 1.839276 L 7.655916 1.839464 L 12.655082 12.411658 Z M 12.726727 2.12543 " stroke="#000000" stroke-width="6.965178" stroke-opacity="1" stroke-miterlimit="4"/><g fill="#0cc0df" fill-opacity="1"><g transform="translate(142.176819, 242.579926)"><g><path d="M 11.8125 -22.671875 L 18.3125 -22.921875 L 17.296875 -0.109375 L 12.109375 0.0625 L 6.859375 -11.28125 L 6.375 -0.53125 L 0.578125 0 L 0.921875 -23.03125 L 7.1875 -22.984375 L 11.6875 -13.265625 Z M 11.8125 -22.671875 "/></g></g></g><g fill="#0cc0df" fill-opacity="1"><g transform="translate(163.268337, 242.651275)"><g><path d="M 15.8125 -21.453125 L 17.40625 -1.046875 L 11.390625 -0.578125 L 10.8125 -7.78125 L 6.234375 -7.21875 L 6.15625 -0.4375 L 0.578125 0 L 0.28125 -21.28125 L 1.328125 -22.703125 L 13.890625 -23.96875 Z M 10.53125 -12.1875 L 10.0625 -17.921875 L 6.28125 -17.375 L 6.265625 -12.21875 Z M 10.53125 -12.1875 "/></g></g></g><g fill="#0cc0df" fill-opacity="1"><g transform="translate(183.612421, 241.416934)"><g><path d="M -2.15625 -23.015625 L 14 -24.953125 L 14.421875 -19.3125 L 9.875 -18.5625 L 11.21875 -1.84375 L 5.28125 -0.53125 L 3.375 -17.8125 L -1.46875 -17.484375 Z M -2.15625 -23.015625 "/></g></g></g><g fill="#0cc0df" fill-opacity="1"><g transform="translate(203.131677, 238.926791)"><g><path d="M -3 -22.671875 L 3.1875 -23.90625 L 6.078125 -1.59375 L 0.578125 -0.0625 Z M -3 -22.671875 "/></g></g></g><g fill="#0cc0df" fill-opacity="1"><g transform="translate(212.875637, 237.374673)"><g><path d="M 10.390625 -25.90625 L 12.03125 -24.765625 L 15.921875 -5.546875 L 15.28125 -3.328125 L 2.578125 -0.515625 L 0.46875 -1.21875 L -3.953125 -21.296875 L -3.34375 -22.90625 Z M 2.703125 -19.296875 L 5.65625 -6.234375 L 9.546875 -6.78125 L 6.84375 -19.8125 Z M 2.703125 -19.296875 "/></g></g></g><g fill="#0cc0df" fill-opacity="1"><g transform="translate(232.297752, 233.179206)"><g><path d="M 5.0625 -25.0625 L 11.25 -27.09375 L 16.59375 -4.890625 L 11.640625 -3.296875 L 3.46875 -12.734375 L 5.984375 -2.28125 L 0.5625 -0.15625 L -5.5 -22.375 L 0.53125 -24.0625 L 7.546875 -15.984375 Z M 5.0625 -25.0625 "/></g></g></g></svg>